<svg width="220" height="229" viewBox="0 0 220 229" fill="none" xmlns="http://www.w3.org/2000/svg">
<g clip-path="url(#clip0)">
<path d="M219.933 124.386C219.933 122.632 219.235 120.95 217.993 119.71C216.751 118.47 215.066 117.773 213.309 117.773H157.729V98.7945C157.712 98.1509 157.449 97.5382 156.993 97.083C156.536 96.6277 155.923 96.3645 155.278 96.3478H107.184C106.534 96.3478 105.91 96.6056 105.451 97.0644C104.991 97.5233 104.733 98.1456 104.733 98.7945V117.575H64.3234C63.9319 105.57 66.6228 93.6642 72.1403 82.99C77.1884 73.5049 84.8709 65.6752 94.2662 60.4405C104.219 54.9759 115.436 52.2167 126.793 52.4391C137.077 52.4391 147.22 54.8293 156.418 59.4203C165.617 64.0114 173.618 70.6773 179.789 78.8901L220.132 42.4538C209.174 28.7042 195.003 17.8501 178.861 10.8448C161.381 3.42439 142.54 -0.269459 123.547 -0.000145849C101.57 -0.350032 79.8522 4.76309 60.3487 14.8786C42.1005 24.3289 26.847 38.6623 16.2957 56.2745C10.7127 65.5028 6.53765 75.5097 3.90785 85.9658C3.46621 87.8174 3.06874 89.6689 2.71544 91.5205V92.4463C-2.83764 116.907 -0.184214 142.511 10.2674 165.319C13.675 173.375 18.3242 180.85 24.0464 187.472C27.2475 191.499 31.3958 194.675 36.1225 196.717C40.8492 198.759 46.0081 199.604 51.1406 199.176C55.8788 197.969 60.3646 195.931 64.3896 193.159C72.2119 188.375 79.6734 183.026 86.7142 177.156C88.6353 175.569 87.8404 173.717 86.0518 172.791L30.3396 146.34C28.3433 140.581 27.1616 134.571 26.8287 128.486L68.8943 142.769L106.522 155.532C107.777 155.898 109.105 155.938 110.38 155.649C111.655 155.36 112.835 154.751 113.808 153.879L140.307 131.197C141.635 130.035 143.342 129.394 145.109 129.394C146.876 129.394 148.583 130.035 149.912 131.197C150.609 131.864 151.164 132.664 151.544 133.551C151.923 134.437 152.118 135.391 152.118 136.355C152.118 137.319 151.923 138.273 151.544 139.159C151.164 140.046 150.609 140.846 149.912 141.513L126.528 165.319C125.58 166.261 124.892 167.433 124.533 168.719C124.173 170.005 124.153 171.363 124.474 172.659L126.528 180.462L139.114 229H213.11C214.867 229 216.552 228.303 217.794 227.063C219.036 225.823 219.734 224.141 219.734 222.387V190.646V124.518L219.933 124.386ZM150.707 117.773H111.755V104.548C111.755 104.32 111.846 104.101 112.007 103.94C112.169 103.779 112.388 103.688 112.616 103.688H149.846C149.959 103.688 150.071 103.71 150.175 103.753C150.28 103.797 150.375 103.86 150.455 103.94C150.535 104.02 150.598 104.114 150.641 104.219C150.685 104.323 150.707 104.435 150.707 104.548V117.773Z" fill="#00203F"/>
<path d="M96.9828 190.976L87.5098 201.028L86.3836 202.284C84.3177 204.951 83.2199 208.238 83.2701 211.608C83.3915 215.291 84.7721 218.822 87.1825 221.613C89.5929 224.404 92.8877 226.287 96.5191 226.95C104.071 228.23 111.714 228.893 119.374 228.934L100.825 191.77C100.653 191.435 100.409 191.144 100.109 190.916C99.8099 190.688 99.463 190.531 99.0944 190.454C98.7257 190.378 98.3446 190.386 97.9792 190.476C97.6138 190.566 97.2733 190.737 96.9828 190.976Z" fill="#00203F"/>
</g>
<defs>
<clipPath id="clip0">
<rect width="220" height="229" fill="white"/>
</clipPath>
</defs>
</svg>
