<svg width="1704" height="141" viewBox="0 0 1704 141" fill="none" xmlns="http://www.w3.org/2000/svg">
<g clip-path="url(#clip0)">
<path d="M1144.3 109.397C1137.45 109.531 1130.68 107.868 1124.68 104.574C1119.01 101.436 1114.37 96.73 1111.33 91.0243C1108.08 84.8026 1106.46 77.8684 1106.61 70.8587C1106.42 63.8759 1107.98 56.9566 1111.17 50.7329C1114.22 45.0246 1118.85 40.3086 1124.52 37.143C1130.53 33.8688 1137.29 32.2072 1144.14 32.3208C1150.35 32.3208 1156.47 33.7613 1162.02 36.5282C1167.57 39.2951 1172.39 43.3124 1176.12 48.262L1200.46 26.303C1193.89 18.0756 1185.39 11.5876 1175.72 7.41268C1165.2 2.87213 1153.84 0.590854 1142.38 0.717368C1129.11 0.499868 1115.99 3.58157 1104.21 9.6843C1093.21 15.3917 1084.01 24.0272 1077.63 34.6323C1071.11 45.586 1067.77 58.1245 1067.96 70.8587C1067.76 83.5942 1071.1 96.1354 1077.63 107.085C1083.99 117.711 1093.2 126.363 1104.21 132.073C1116 138.143 1129.11 141.21 1142.38 141C1153.86 141.169 1165.24 138.943 1175.8 134.464C1185.47 130.289 1193.97 123.801 1200.54 115.574L1176.2 93.6148C1172.46 98.5243 1167.64 102.504 1162.11 105.243C1156.57 107.981 1150.48 109.403 1144.3 109.397Z" fill="#00203F"/>
<path d="M0 23.9118H44.8463V137.573H69.9475V23.9118H114.794V2.71002H0V23.9118Z" fill="#00203F"/>
<path d="M239.54 76.8765C244.624 69.1026 247.217 59.9707 246.975 50.6931C247.219 41.657 244.801 32.7478 240.02 25.0676C235.17 17.6739 228.209 11.8992 220.035 8.48875C210.337 4.43485 199.891 2.46577 189.378 2.71006H133.74V137.573H158.841V98.2776H189.378C191.696 98.2776 193.375 98.2776 194.614 98.0783L222.233 137.573H249.293L218.196 93.2561C226.854 90.157 234.319 84.4283 239.54 76.8765ZM213.16 70.6196C207.484 75.3223 199.17 77.6736 188.219 77.6736H158.841V23.9119H188.219C199.17 23.9119 207.484 26.2233 213.16 30.8463C216.037 33.2776 218.305 36.3451 219.783 39.8046C221.261 43.264 221.908 47.0198 221.674 50.7728C221.874 54.5102 221.211 58.2435 219.734 61.6846C218.258 65.1258 216.009 68.1827 213.16 70.6196Z" fill="#00203F"/>
<path d="M325.436 2.71002L264.561 137.573H290.462L303.772 106.368H371.441L384.991 137.573H411.251L350.177 2.71002H325.436ZM312.325 86.7202L337.626 27.8971L363.127 86.8796L312.325 86.7202Z" fill="#00203F"/>
<path d="M458.496 106.766L413.489 2.71002H386.23L445.345 137.573H470.087L529.043 2.71002H503.941L458.496 106.766Z" fill="#00203F"/>
<path d="M568.653 79.3872H633.964V58.7832H568.653V23.7126H642.277V2.71002H543.512V137.573H644.995V116.57H568.653V79.3872Z" fill="#00203F"/>
<path d="M695.957 2.71002H670.856V137.573H766.704V116.371H695.957V2.71002Z" fill="#00203F"/>
<path d="M905.8 26.1037C900.704 18.4071 893.447 12.3776 884.935 8.76768C874.832 4.49566 863.929 2.43013 852.959 2.71002H791.405V137.573H829.657V102.303H853.239C864.209 102.583 875.112 100.517 885.215 96.2451C893.714 92.6526 900.968 86.6526 906.079 78.9887C911.112 71.1215 913.673 61.9344 913.434 52.606C913.578 43.213 910.921 33.989 905.8 26.1037ZM868.508 67.1524C863.374 70.9032 857.069 72.7113 850.721 72.2535H829.457V32.7592H850.721C857.083 32.2848 863.402 34.1254 868.508 37.9401C870.534 39.7894 872.123 42.0644 873.16 44.6007C874.197 47.137 874.655 49.8713 874.503 52.606C874.669 55.3245 874.216 58.0452 873.177 60.5643C872.139 63.0834 870.543 65.3357 868.508 67.1524Z" fill="#00203F"/>
<path d="M968.432 2.71002L908.717 137.573H947.728L958.36 111.588H1015.6L1026.23 137.772H1066.2L1006.12 2.71002H968.432ZM969.592 83.253L986.978 40.0922L1004.37 83.253H969.592Z" fill="#00203F"/>
<path d="M1349.95 2.71002H1307.78L1255.42 58.7832V2.71002H1217.53V137.573H1255.42V103.857L1269.73 88.6331L1308.38 137.573H1352.82L1294.67 62.4497L1349.95 2.71002Z" fill="#00203F"/>
<path d="M1401.11 2.71002H1362.86V137.612H1401.11V2.71002Z" fill="#00203F"/>
<path d="M1519.62 74.565L1459.9 2.71002H1428.41V137.573H1465.9V65.7176L1525.61 137.573H1557.11V2.71002H1519.62V74.565Z" fill="#00203F"/>
<path d="M1703.92 74.9635C1703.92 73.9066 1703.5 72.8929 1702.75 72.1455C1702 71.3981 1700.98 70.9782 1699.92 70.9782H1666.51V59.5404C1666.5 59.1457 1666.33 58.7707 1666.05 58.4953C1665.77 58.2198 1665.39 58.0657 1664.99 58.0659H1636.01C1635.61 58.0657 1635.23 58.2198 1634.95 58.4953C1634.67 58.7707 1634.5 59.1457 1634.49 59.5404V70.8587H1610.15C1609.85 63.627 1611.45 56.4423 1614.79 50.0156C1617.82 44.2897 1622.46 39.5676 1628.14 36.4257C1634.13 33.1374 1640.88 31.4746 1647.72 31.6035C1653.93 31.6035 1660.05 33.044 1665.6 35.8109C1671.15 38.5778 1675.98 42.5951 1679.7 47.5447L1704.08 25.5857C1697.49 17.378 1689 10.8942 1679.34 6.69533C1668.75 2.15131 1657.33 -0.129515 1645.8 2.17659e-05C1632.53 -0.217478 1619.41 2.86423 1607.63 8.96695C1599.24 13.291 1591.86 19.348 1586 26.735C1580.13 34.1219 1575.91 42.6695 1573.62 51.8089C1573.34 52.9248 1573.1 54.0407 1572.86 55.1566V55.7145C1569.6 70.4495 1571.26 85.8424 1577.57 99.5529C1579.6 104.423 1582.41 108.933 1585.89 112.904C1587.82 115.334 1590.32 117.25 1593.17 118.48C1596.03 119.711 1599.14 120.219 1602.24 119.958C1605.1 119.234 1607.8 118.006 1610.23 116.331C1614.97 113.458 1619.49 110.234 1623.74 106.687C1624.9 105.73 1624.38 104.614 1623.34 104.056L1589.69 88.1151C1588.51 84.6375 1587.81 81.0182 1587.61 77.3547L1612.95 85.963L1635.69 93.6546C1636.45 93.8715 1637.25 93.8939 1638.02 93.7197C1638.79 93.5455 1639.5 93.1804 1640.09 92.6583L1655.88 78.9887C1656.68 78.2881 1657.71 77.9018 1658.77 77.9018C1659.84 77.9018 1660.87 78.2881 1661.67 78.9887C1662.09 79.3933 1662.42 79.8768 1662.64 80.4107C1662.87 80.9445 1662.99 81.518 1662.99 82.0972C1662.99 82.6765 1662.87 83.25 1662.64 83.7838C1662.42 84.3177 1662.09 84.8011 1661.67 85.2058L1647.56 99.6326C1647 100.205 1646.59 100.911 1646.37 101.685C1646.15 102.459 1646.14 103.275 1646.32 104.056L1647.6 108.759L1655.28 138.091H1699.84C1700.9 138.091 1701.92 137.671 1702.67 136.923C1703.42 136.176 1703.84 135.162 1703.84 134.105V114.896L1703.92 74.9635ZM1662.15 70.9782H1638.77V63.0076C1638.77 62.9396 1638.78 62.8722 1638.81 62.8094C1638.83 62.7465 1638.87 62.6894 1638.92 62.6413C1638.97 62.5932 1639.03 62.555 1639.09 62.529C1639.15 62.503 1639.22 62.4896 1639.29 62.4896H1661.75C1661.82 62.4893 1661.88 62.5029 1661.94 62.5294C1662.01 62.5559 1662.06 62.5947 1662.11 62.6434C1662.15 62.6921 1662.19 62.7497 1662.21 62.8124C1662.23 62.8751 1662.24 62.9416 1662.23 63.0076L1662.15 70.9782Z" fill="#00203F"/>
<path d="M1629.78 115.096L1624.06 121.153L1623.38 121.91C1622.11 123.518 1621.44 125.522 1621.5 127.57C1621.56 129.794 1622.39 131.929 1623.84 133.614C1625.3 135.299 1627.3 136.43 1629.5 136.815C1634.05 137.587 1638.66 137.987 1643.29 138.011L1632.05 115.574C1631.96 115.373 1631.81 115.197 1631.63 115.06C1631.46 114.923 1631.25 114.828 1631.03 114.782C1630.81 114.736 1630.58 114.74 1630.37 114.794C1630.15 114.849 1629.95 114.952 1629.78 115.096Z" fill="#00203F"/>
</g>
<defs>
<clipPath id="clip0">
<rect width="1704" height="141" fill="white"/>
</clipPath>
</defs>
</svg>
