<svg width="1936" height="1161" viewBox="0 0 1936 1161" fill="none" xmlns="http://www.w3.org/2000/svg">
<path d="M2.39309 1047.68C2.39309 1047.68 -33.9831 807.995 186.674 748.473C186.674 748.473 84.8303 440.579 413.678 335.931C413.678 335.931 592.308 -126.505 1056.96 193.186C1056.96 193.186 1308.44 93.0579 1407.68 349.631C1407.68 349.631 1776.63 368.91 1763.6 716.698C1763.6 716.698 1941.86 768.169 1934.84 1047.68H2.39309Z" fill="url(#paint0_linear)"/>
<path d="M326.913 441.453C337.533 441.453 346.142 429.891 346.142 415.63C346.142 401.368 337.533 389.806 326.913 389.806C316.292 389.806 307.683 401.368 307.683 415.63C307.683 429.891 316.292 441.453 326.913 441.453Z" fill="#EDA820"/>
<path d="M1525.65 377.103C1539.44 377.103 1550.63 362.084 1550.63 343.557C1550.63 325.031 1539.44 310.012 1525.65 310.012C1511.85 310.012 1500.67 325.031 1500.67 343.557C1500.67 362.084 1511.85 377.103 1525.65 377.103Z" fill="#EDA820"/>
<path d="M1355.63 131.204C1411.78 126.485 1413.16 201.071 1414.34 246.07C1415.53 291.068 1441.57 293.437 1435.66 351.46C1429.74 409.484 1453.41 405.014 1453.41 454.025C1453.41 503.036 1441.35 602.508 1355.61 602.508C1269.88 602.508 1255.6 527.782 1252.65 473.979C1249.7 420.176 1265.6 446.421 1274.25 388.878C1282.91 331.334 1272.26 311.199 1292.39 286.331C1312.52 261.463 1299.28 135.942 1355.63 131.204Z" fill="url(#paint1_linear)"/>
<path d="M1355.63 238.099V807.162" stroke="#203C78" stroke-width="3.49" stroke-miterlimit="10"/>
<path d="M1390.9 259.683L1355.63 335.383" stroke="#203C78" stroke-width="3.49" stroke-miterlimit="10"/>
<path d="M1298.4 302.503C1298.4 302.503 1312.6 362.619 1355.63 391.722" stroke="#203C78" stroke-width="3.49" stroke-miterlimit="10"/>
<path d="M1420.01 396.844C1420.01 396.844 1408.98 461.543 1355.63 501.655" stroke="#203C78" stroke-width="3.49" stroke-miterlimit="10"/>
<path d="M1286.76 449.899C1286.76 449.899 1319.71 531.418 1355.63 557.944" stroke="#203C78" stroke-width="3.49" stroke-miterlimit="10"/>
<path d="M469.497 238.026C516.319 234.091 517.491 296.29 518.46 333.811C519.429 371.333 541.167 373.312 536.227 421.671C531.287 470.03 551.038 466.33 551.038 507.198C551.038 548.067 540.977 631.017 469.497 631.017C398.017 631.017 386.095 568.696 383.641 523.842C381.187 478.988 394.435 500.862 401.657 452.875C408.879 404.887 399.991 388.112 416.775 367.361C433.56 346.61 422.512 241.975 469.497 238.026Z" fill="url(#paint2_linear)"/>
<path d="M469.497 327.163V801.696" stroke="#203C78" stroke-width="2.91" stroke-miterlimit="10"/>
<path d="M498.909 345.165L469.497 408.288" stroke="#203C78" stroke-width="2.91" stroke-miterlimit="10"/>
<path d="M421.769 380.893C421.769 380.893 433.61 431.023 469.492 455.275" stroke="#203C78" stroke-width="2.91" stroke-miterlimit="10"/>
<path d="M523.192 459.541C523.192 459.541 513.996 513.493 469.51 546.948" stroke="#203C78" stroke-width="2.91" stroke-miterlimit="10"/>
<path d="M412.066 503.779C412.066 503.779 439.55 571.757 469.497 593.903" stroke="#203C78" stroke-width="2.91" stroke-miterlimit="10"/>
<path d="M290.41 521.315C322.249 518.638 323.01 560.928 323.702 586.444C324.395 611.959 339.142 613.3 335.782 646.197C332.423 679.095 345.852 676.541 345.852 704.348C345.852 732.155 339.015 788.535 290.41 788.535C241.804 788.535 233.704 746.163 232.056 715.665C230.407 685.168 239.395 700.041 244.308 667.411C249.22 634.78 243.176 623.368 254.586 609.269C265.996 595.171 258.462 524.005 290.41 521.315Z" fill="url(#paint3_linear)"/>
<path d="M290.41 581.924V904.573" stroke="#203C78" stroke-width="1.98" stroke-miterlimit="10"/>
<path d="M310.409 594.161L290.41 637.081" stroke="#203C78" stroke-width="1.98" stroke-miterlimit="10"/>
<path d="M257.964 618.44C257.964 618.44 266.014 652.524 290.41 669.014" stroke="#203C78" stroke-width="1.98" stroke-miterlimit="10"/>
<path d="M326.912 671.93C326.912 671.93 320.66 708.614 290.41 731.358" stroke="#203C78" stroke-width="1.98" stroke-miterlimit="10"/>
<path d="M251.362 702.011C251.362 702.011 270.048 748.233 290.41 763.273" stroke="#203C78" stroke-width="1.98" stroke-miterlimit="10"/>
<path d="M345.617 1048.95C313.946 1045.37 282.833 1037.91 252.974 1026.76C245.182 1023.84 236.402 1019.42 234.953 1011.22C232.649 998.171 249.691 991.26 262.804 989.362C252.987 954.358 217.734 919.532 236.14 888.183C254.491 856.934 305.202 869.443 333.736 847.106C376.229 813.833 337.553 739.659 365.738 693.628C381.35 668.131 414.765 658.222 444.422 661.99C474.079 665.758 501.019 680.612 527.104 695.182C530.078 637.792 512.416 578.994 527.421 523.538C550.965 436.585 655.253 387.447 742.807 408.592C830.361 429.737 896.711 507.158 923.755 593.088C950.093 524.797 1035.38 486.008 1104.15 511.043C1175.98 537.202 1213.6 614.197 1244.15 684.29C1251.62 668.892 1259.41 653.041 1272.3 641.809C1285.18 630.578 1304.62 624.989 1319.74 633.005C1350.37 649.255 1336.49 695.761 1346.17 729.062C1358.02 731.643 1369.03 722.626 1377.41 713.868C1431.25 657.71 1466.78 584.823 1526.32 534.738C1534.18 528.126 1542.73 521.804 1552.72 519.449C1575.09 514.177 1597.02 530.146 1611.24 548.193C1647.65 594.388 1656.22 657.388 1649.43 715.801C1642.63 774.215 1622.12 829.996 1605.7 886.467C1604.45 890.773 1603.28 895.669 1605.58 899.523C1608.98 905.211 1617.16 904.799 1623.37 907.095C1637.46 912.308 1640.15 931.148 1637.94 946.016C1631.31 990.63 1600.22 1030.81 1558.7 1048.43L345.617 1048.95Z" fill="url(#paint4_linear)"/>
<path d="M1494.4 1160.8V1132.57C1494.4 1086.52 1412.49 1049.2 1311.45 1049.2H648.933C547.886 1049.2 465.979 1086.52 465.979 1132.57V1160.8H1494.4Z" fill="url(#paint5_linear)"/>
<path d="M719.498 840.648C718.055 840.641 716.674 840.063 715.656 839.04C714.638 838.018 714.066 836.634 714.065 835.191V704.208C714.065 692.288 697.765 682.216 678.417 682.216C659.07 682.216 642.725 692.288 642.725 704.208V835.191C642.725 836.638 642.15 838.025 641.128 839.048C640.105 840.071 638.718 840.646 637.271 840.646C635.825 840.646 634.438 840.071 633.415 839.048C632.392 838.025 631.818 836.638 631.818 835.191V704.208C631.818 686.065 652.704 671.306 678.377 671.306C704.049 671.306 724.931 686.065 724.931 704.208V835.191C724.934 835.907 724.796 836.616 724.524 837.278C724.253 837.94 723.853 838.541 723.348 839.048C722.843 839.555 722.243 839.958 721.582 840.232C720.922 840.507 720.213 840.648 719.498 840.648Z" fill="#383A45"/>
<path d="M705.308 669.852H651.482C648.971 669.852 646.936 671.888 646.936 674.399V689.099C646.936 691.611 648.971 693.646 651.482 693.646H705.308C707.818 693.646 709.854 691.611 709.854 689.099V674.399C709.854 671.888 707.818 669.852 705.308 669.852Z" fill="#383A45"/>
<path d="M605.303 1072.74C618.744 1072.74 629.64 1061.84 629.64 1048.4C629.64 1034.95 618.744 1024.05 605.303 1024.05C591.862 1024.05 580.966 1034.95 580.966 1048.4C580.966 1061.84 591.862 1072.74 605.303 1072.74Z" fill="#383A45"/>
<path d="M751.487 1072.74C764.927 1072.74 775.823 1061.84 775.823 1048.4C775.823 1034.95 764.927 1024.05 751.487 1024.05C738.046 1024.05 727.15 1034.95 727.15 1048.4C727.15 1061.84 738.046 1072.74 751.487 1072.74Z" fill="#383A45"/>
<path d="M773.365 780.256H583.42C574.213 780.256 566.749 787.722 566.749 796.931V1012.35C566.749 1021.56 574.213 1029.03 583.42 1029.03H773.365C782.572 1029.03 790.036 1021.56 790.036 1012.35V796.931C790.036 787.722 782.572 780.256 773.365 780.256Z" fill="#326CB4"/>
<path opacity="0.3" d="M682.945 816.754H673.849C672.296 816.754 671.037 818.013 671.037 819.566V989.72C671.037 991.273 672.296 992.532 673.849 992.532H682.945C684.498 992.532 685.757 991.273 685.757 989.72V819.566C685.757 818.013 684.498 816.754 682.945 816.754Z" fill="#8CC3CF"/>
<g opacity="0.3">
<path opacity="0.3" d="M639.682 816.754H630.586C629.033 816.754 627.774 818.013 627.774 819.566V989.72C627.774 991.273 629.033 992.532 630.586 992.532H639.682C641.235 992.532 642.494 991.273 642.494 989.72V819.566C642.494 818.013 641.235 816.754 639.682 816.754Z" fill="#8CC3CF"/>
<path opacity="0.3" d="M726.204 816.754H717.107C715.554 816.754 714.295 818.013 714.295 819.566V989.72C714.295 991.273 715.554 992.532 717.107 992.532H726.204C727.756 992.532 729.015 991.273 729.015 989.72V819.566C729.015 818.013 727.756 816.754 726.204 816.754Z" fill="#8CC3CF"/>
</g>
<path d="M625.32 169.849L587.649 152.359C587.649 152.359 613.005 131.617 654.348 119.851L625.32 169.849Z" fill="#114F93"/>
<path d="M696.483 95.9473L654.488 118.592L648.321 117.36L648.928 114.814L675.606 2.0191L679.835 4.73641C679.94 4.80179 680.031 4.88756 680.102 4.98867C680.174 5.08978 680.225 5.20419 680.251 5.32515L696.483 95.9473Z" fill="#CE2E3D"/>
<path d="M696.483 95.9519L654.488 118.582L648.321 117.351L648.928 114.805L649.689 114.248L690.47 93.5561L696.483 95.9519Z" fill="#B52436"/>
<path d="M690.783 94.2852L663.426 109.484L648.996 117.505C648.87 117.568 648.73 117.601 648.588 117.601C648.447 117.601 648.307 117.568 648.181 117.504C648.054 117.44 647.945 117.347 647.861 117.233C647.777 117.12 647.72 116.987 647.697 116.848L646.66 109.602L644.215 92.4827L644.092 91.577L634.897 27.0273C634.872 26.8646 634.895 26.6983 634.963 26.5482C635.03 26.3981 635.139 26.2704 635.277 26.1804L669.267 5.43379L674.7 2.1232C674.822 2.04751 674.959 2.00168 675.102 1.98946C675.244 1.97723 675.388 1.99896 675.52 2.05287C675.653 2.10678 675.771 2.19133 675.864 2.2996C675.958 2.40786 676.024 2.53675 676.059 2.67572L678.639 18.1146L680.423 28.7573L684.684 54.3317L691.218 93.3749C691.251 93.5531 691.227 93.7373 691.149 93.9009C691.07 94.0645 690.942 94.1991 690.783 94.2852Z" fill="#E7515B"/>
<path d="M679.35 12.1094L678.635 12.363L680.899 26.493C680.915 26.5845 680.956 26.6697 681.017 26.7393C681.079 26.8088 681.158 26.8599 681.247 26.887L684.376 27.7928L684.729 27.0772L679.35 12.1094Z" fill="#B72032"/>
<path d="M679.35 12.1094L681.664 25.8318C681.684 25.9519 681.737 26.064 681.817 26.1559C681.897 26.2478 682.001 26.3159 682.117 26.3526L684.729 27.0862L682.456 13.6039C682.438 13.491 682.39 13.3851 682.317 13.2974C682.243 13.2097 682.148 13.1435 682.04 13.1057L679.35 12.1094Z" fill="#E7515B"/>
<path d="M646.153 46.4969C646.182 46.7045 646.149 46.9161 646.059 47.1053C645.969 47.2945 645.825 47.4531 645.645 47.5612L641.978 49.6626C641.841 49.7426 641.688 49.7895 641.53 49.7993C641.372 49.8091 641.214 49.7816 641.068 49.719C640.923 49.6564 640.794 49.5604 640.693 49.4389C640.591 49.3174 640.52 49.1737 640.484 49.0195C640.464 48.9897 640.451 48.9555 640.448 48.9198L637.305 28.54C637.273 28.3432 637.299 28.1412 637.379 27.9587C637.459 27.7761 637.591 27.6209 637.758 27.512L641.267 25.2475C641.39 25.1762 641.525 25.1285 641.666 25.1072C641.798 25.0831 641.934 25.0856 642.066 25.1146C642.198 25.1436 642.322 25.1984 642.433 25.2759C642.543 25.3534 642.637 25.4521 642.709 25.5662C642.781 25.6802 642.829 25.8075 642.852 25.9405L646.153 46.4969Z" fill="#9E162D"/>
<path d="M644.477 46.7912L640.828 48.9153C640.726 48.9822 640.606 49.0184 640.484 49.0194C640.464 48.9896 640.451 48.9554 640.448 48.9198L637.305 28.54C637.273 28.3432 637.299 28.1412 637.379 27.9586C637.459 27.7761 637.591 27.6209 637.758 27.5119L641.267 25.2475C641.39 25.1761 641.525 25.1285 641.666 25.1071C641.666 25.1433 641.666 25.1569 641.666 25.1932L644.989 45.7587C645.02 45.9625 644.987 46.1708 644.896 46.3555C644.804 46.5402 644.658 46.6923 644.477 46.7912Z" fill="#B72032"/>
<path d="M640.467 35.0426C641.432 34.9739 642.104 33.3669 641.968 31.4533C641.832 29.5397 640.939 28.0441 639.974 28.1128C639.009 28.1816 638.337 29.7885 638.473 31.7021C638.609 33.6157 639.502 35.1113 640.467 35.0426Z" fill="#682631"/>
<path d="M642.073 45.9921C643.038 45.9234 643.711 44.3164 643.575 42.4028C643.438 40.4892 642.546 38.9936 641.58 39.0623C640.615 39.131 639.943 40.738 640.079 42.6516C640.215 44.5652 641.108 46.0608 642.073 45.9921Z" fill="#682631"/>
<path d="M641.337 38.3525C641.704 38.3029 641.921 37.672 641.823 36.9433C641.724 36.2145 641.347 35.664 640.98 35.7136C640.614 35.7632 640.396 36.3942 640.495 37.1229C640.593 37.8516 640.97 38.4021 641.337 38.3525Z" fill="#682631"/>
<g style="mix-blend-mode:overlay" opacity="0.49">
<path style="mix-blend-mode:overlay" opacity="0.49" d="M678.639 18.0557L644.197 92.433L644.074 91.5272L640.23 63.1948L669.249 5.38404L674.682 2.07346C674.803 1.99777 674.941 1.95194 675.084 1.93971C675.226 1.92749 675.37 1.94922 675.502 2.00312C675.635 2.05703 675.753 2.14158 675.846 2.24984C675.94 2.35811 676.006 2.48701 676.04 2.62598L678.639 18.0557Z" fill="url(#paint6_linear)"/>
<path style="mix-blend-mode:overlay" opacity="0.49" d="M684.684 54.2911L663.404 109.466L648.974 117.487C648.847 117.55 648.707 117.583 648.566 117.583C648.424 117.583 648.285 117.55 648.158 117.486C648.032 117.422 647.922 117.329 647.838 117.215C647.754 117.102 647.698 116.97 647.674 116.83L646.637 109.584L680.419 28.7303L684.684 54.2911Z" fill="url(#paint7_linear)"/>
</g>
<path d="M636.409 37.7381C636.409 37.7381 600.929 121.975 608.337 171.389C615.744 220.803 651.563 152.368 651.563 152.368L660.827 148.921C660.827 148.921 648.149 127.033 649.711 107.836C649.711 107.836 662.679 109.403 670.086 91.1423C677.494 72.882 687.686 68.2535 690.774 69.1774L692.934 76.2424C692.934 76.2424 698.181 72.8865 694.939 62.3841C691.697 51.8817 690.158 36.1168 684.906 33.0462C679.654 29.9757 656.195 34.6766 639.519 59.6487L636.409 37.7381Z" fill="#EDB090"/>
<path d="M692.214 57.9458C692.214 57.9458 683.158 53.2086 674.306 61.4466C674.306 61.4466 682.954 57.3253 692.214 57.9458Z" fill="#EC996F"/>
<path d="M690.647 46.4154C690.647 46.4154 681.592 41.6827 672.74 49.9161C672.74 49.9161 681.388 45.7994 690.647 46.4154Z" fill="#EC996F"/>
<path d="M715.088 274.918C719.016 260.79 725.139 247.367 733.235 235.141C748.992 211.139 781.818 166.231 804.602 169.835C835.577 174.731 733.063 343.526 713.313 307.019C713.313 307.023 708.491 299.016 715.088 274.918Z" fill="#326CB4"/>
<path d="M804.602 169.849L797.847 181.352L721.056 312C721.056 312 606.082 295.506 588.206 201.551C585.621 187.964 585.068 172.734 587.201 155.714C587.337 154.587 587.495 153.45 587.654 152.336C587.654 152.336 587.862 152.544 588.242 152.888C592.317 156.358 637.88 148.151 654.348 119.828C654.348 119.828 678.223 167.358 697.158 174.627C716.093 181.896 766.333 161.919 804.602 169.849Z" fill="#326CB4"/>
<path opacity="0.5" d="M801.677 172.888L797.847 181.343L721.056 312C721.056 312 606.082 295.506 588.206 201.551C595.568 215.187 611.542 227.818 642.603 235.739C742.495 261.214 800.115 175.229 801.677 172.888Z" fill="url(#paint8_linear)"/>
<path d="M819.643 950.504L836.804 1075.05H800.998L797.788 1064.89L785.499 1077.19H689.361C689.361 1077.19 685.042 1061.68 692.531 1056.87C700.02 1052.05 719.788 1047.78 719.788 1047.78L762.48 1017.31L750.192 950.491L819.643 950.504Z" fill="#4E1413"/>
<path d="M953.122 950.504L959.891 1075.05H924.081L920.876 1064.89L908.583 1077.19H812.426C812.426 1077.19 808.107 1061.68 815.596 1056.87C823.085 1052.05 842.848 1047.78 842.848 1047.78L885.541 1017.31L883.648 950.491L953.122 950.504Z" fill="#4E1413"/>
<path d="M846.022 536.11C845.972 536.477 845.9 536.821 845.85 537.188C843.133 553.338 840.87 570.942 839.022 589.569C838.316 596.571 837.664 603.731 837.066 610.99C831.923 673.488 830.587 744.75 830.899 808.933C830.949 818.688 831.035 828.289 831.157 837.664C832.285 928.241 836.251 998.438 836.251 998.438H748.439C744.123 972.515 740.386 947.204 737.229 922.507C732.57 886.412 729.079 851.789 726.453 818.969C715.867 685.209 720.39 581.29 724.252 529.322C726.022 505.613 727.648 492.724 727.648 492.724L790.656 515.821L845.895 536.079L846.022 536.11Z" fill="#1B3663"/>
<path d="M831.144 837.664C783.539 863.659 754.588 895.665 737.229 922.489C732.57 886.394 729.079 851.771 726.453 818.951C794.822 758.595 785.798 650.07 798.444 584.949C834.078 685.368 830.261 766.615 831.144 837.664Z" fill="url(#paint9_linear)"/>
<path d="M834.295 950.504H760.257" stroke="#2064AF" stroke-width="2.56" stroke-miterlimit="10"/>
<path d="M968.028 998.42H884.662C865.863 964 848.626 889.492 834.35 808.933C817.873 716.037 805.313 615.098 798.802 558.293C796.357 537.007 794.763 521.94 794.125 515.803C793.917 513.792 793.812 512.737 793.812 512.737C793.812 512.737 923.57 396.826 955.69 552.817C956.142 555.036 956.588 557.289 957.025 559.574C987.239 716.988 968.028 998.42 968.028 998.42Z" fill="#1B3663"/>
<path d="M964.387 950.504H890.349" stroke="#2064AF" stroke-width="2.56" stroke-miterlimit="10"/>
<path d="M957.025 559.574C939.629 582.123 884.332 607.367 842.472 589.569C834.207 585.985 826.564 581.107 819.834 575.117C812.485 568.673 805.471 563.111 798.802 558.293C767.008 535.331 743.083 529.63 727.716 529.308C729.486 505.6 731.112 492.71 731.112 492.71L794.125 515.808C793.917 513.797 793.812 512.742 793.812 512.742C793.812 512.742 923.569 396.83 955.69 552.822C956.142 555.047 956.588 557.298 957.025 559.574Z" fill="url(#paint10_linear)"/>
<path d="M816.927 695.793C812.231 670.984 790.598 553.782 793.038 521.627" stroke="#2064AF" stroke-width="2.56" stroke-miterlimit="10"/>
<path d="M897.068 527.469C897.068 527.469 901.804 611.81 957.668 607.571" stroke="#2064AF" stroke-width="2.56" stroke-miterlimit="10"/>
<path d="M776.417 529.951C776.417 529.951 775.62 583.102 783.208 594.958C790.797 606.815 801.935 609.029 801.935 609.029" stroke="#2064AF" stroke-width="2.56" stroke-miterlimit="10"/>
<path d="M792.499 185.048C763.34 208.394 740.231 240.993 734.403 277.889C731.687 295.099 732.746 312.657 732.633 330.084C732.461 356.089 729.658 382.166 732.117 408.053C734.526 433.464 741.974 458.264 743.436 483.748C744.6 504.336 736.595 531.047 748.842 547.636C760.339 563.198 786.912 564.266 806.146 566.336C826.974 568.573 848.571 568.374 868.24 561.137C870.178 560.421 872.206 559.556 873.374 557.849C874.144 556.726 874.448 555.358 874.733 554.027C886.876 497.792 893.428 440.352 908.089 384.729C910.421 375.893 912.956 367.098 914.654 358.118C916.683 347.38 917.502 336.452 918.317 325.551C920.5 296.367 922.678 266.979 919.485 237.89C917.946 223.878 915.048 209.698 907.854 197.584C905.771 194.078 903.031 190.555 899.092 189.522C891.798 187.616 885.667 194.871 881.384 201.075C866.778 222.23 846.19 242.913 820.499 243.42C809.737 243.628 797.041 237.755 796.352 227.012" fill="#EFECE7"/>
<path d="M796.47 288.355C803.991 290.801 812.182 288.654 819.372 286.041C826.32 283.462 832.905 279.991 838.959 275.715C851.388 267.047 861.815 255.856 871.428 244.231C872.234 243.253 870.839 241.84 870.024 242.827C860.828 253.945 850.903 264.71 839.136 273.17C833.386 277.374 827.135 280.844 820.526 283.501C813.25 286.345 804.706 288.935 796.982 286.449C795.764 286.055 795.239 287.971 796.452 288.365L796.47 288.355Z" fill="#EA961C"/>
<path d="M789.909 306.489C803.755 308.657 817.895 305.236 829.219 296.978C830.238 296.231 829.247 294.51 828.214 295.266C817.351 303.249 803.766 306.594 790.439 304.569C789.189 304.374 788.628 306.29 789.909 306.484V306.489Z" fill="#EA961C"/>
<path d="M801.732 173.925C770.359 333.889 758.632 498.15 768.914 660.84L769.72 674.426C741.195 682.433 721.504 673.48 691.842 654.332C691.842 654.332 684.145 649.196 684.082 646.968C680.912 547.501 684.924 456.303 699.956 357.932C705.489 321.701 712.607 285.38 727.096 251.722C735.835 231.441 747.149 212.37 760.76 194.98C770.177 182.951 781.008 175.506 797.435 169.863C797.462 169.849 802.234 171.339 801.732 173.925Z" fill="#326CB4"/>
<path d="M793.898 197.33C793.278 196.424 796.135 175.247 796.135 175.247C796.135 175.247 847.62 141.123 885.599 169.844L876.811 210.609L804.589 247.976L793.898 197.33Z" fill="#EA961C"/>
<path d="M806.246 160.886V227.18C806.246 227.18 840.829 215.858 853.176 206.592C865.523 197.326 859.411 200.704 859.411 200.704L861.571 193.29L862.626 143.047L806.246 160.886Z" fill="#EDB090"/>
<path d="M806.246 182.299C806.246 182.299 827.648 187.734 847.824 163.237C868 138.74 804.602 163.237 804.602 163.237L806.246 182.299Z" fill="#EC996F"/>
<path d="M796.135 175.247C796.171 175.183 796.227 175.132 796.295 175.105C796.363 175.077 796.439 175.073 796.51 175.094C796.58 175.115 796.641 175.16 796.683 175.221C796.724 175.282 796.743 175.355 796.737 175.429C796.285 179.957 795.112 194.142 797.231 201.551C799.775 210.441 806.911 216.949 816.112 217.855C821.998 218.416 827.707 215.989 832.991 213.367C854.634 202.638 869.494 187.865 885.599 169.858C889.919 172.947 894.936 191.071 893.749 197.584C888.615 225.74 869.367 245.399 846.824 263.021C836.863 270.806 824.429 277.196 812.019 274.796C799.028 272.296 789.425 260.512 785.595 247.849C783 239.276 782.561 230.296 782.828 221.292C783.103 213.043 784.65 204.885 787.415 197.108C790.181 189.255 793.812 179.468 796.135 175.247Z" fill="#FBB035"/>
<path d="M771.889 269.905C765.001 301.99 759.392 334.313 755.064 366.872C750.717 399.601 747.685 432.471 745.967 465.483C745.004 484.033 744.461 502.602 744.337 521.188C744.337 522.47 746.316 522.47 746.325 521.188C746.551 488.463 748.07 455.782 750.88 423.148C753.733 390.193 757.907 357.389 763.404 324.736C766.465 306.563 769.936 288.467 773.818 270.448C774.085 269.203 772.174 268.669 771.903 269.919L771.889 269.905Z" fill="#4083CC"/>
<path d="M981.122 634.749V640.917C937.415 660.359 887.433 668.711 868.082 671.396C862.834 672.125 859.836 672.438 859.836 672.438C841.055 454.424 888.896 174.641 888.896 174.641C914.02 184.052 936.944 196.003 949.695 205.555C961.39 214.322 967.539 220.835 967.539 220.835C998.413 296.113 981.122 634.749 981.122 634.749Z" fill="#326CB4"/>
<path d="M883.915 275C879.276 326.399 875.374 377.854 872.211 429.366C871.305 444.039 870.468 458.715 869.698 473.395C869.644 474.355 871.133 474.351 871.183 473.395C873.921 421.866 877.392 370.388 881.597 318.961C882.804 304.306 884.067 289.663 885.387 275.032C885.473 274.081 883.983 274.085 883.897 275.032L883.915 275Z" fill="#4083CC"/>
<path d="M868.181 490.704C867.322 498.361 867.085 506.075 867.475 513.77C867.538 515.042 869.521 515.047 869.458 513.77C869.068 506.075 869.305 498.361 870.164 490.704C870.309 489.436 868.322 489.45 868.181 490.704Z" fill="#4083CC"/>
<path opacity="0.5" d="M981.122 634.749V640.917C937.415 660.359 887.433 668.71 868.082 671.396C866.402 635.718 871.183 568.446 921.056 513.792C979.093 450.234 959.244 270.987 949.676 205.573C961.372 214.34 967.52 220.853 967.52 220.853C998.413 296.113 981.122 634.749 981.122 634.749Z" fill="url(#paint11_linear)"/>
<path d="M1095.58 327.675L1227.18 369.843L1249.26 373.611C1249.26 373.611 1298.49 385.019 1303.36 385.513C1308.99 386.083 1310.07 388.932 1309.7 390.993C1309.15 394.204 1304.94 396.083 1300.09 395.743C1298.42 395.626 1272.08 392.705 1272.08 392.705C1272.08 392.705 1274.14 394.136 1278.67 398.542C1283.2 402.949 1285.08 412.396 1283.82 421.762C1282.55 431.127 1281.37 433.636 1277.71 433.315C1276.24 433.183 1275.14 432.237 1274.35 431.105C1273.08 429.223 1272.54 426.938 1272.85 424.687C1274.66 409.665 1267.05 404.76 1267.05 404.76L1264.16 404.267C1264.16 404.267 1269.75 414.09 1266.25 421.091C1265.73 422.124 1265.02 423.047 1264.15 423.809C1263.93 425.861 1263.18 427.82 1261.97 429.492C1260.76 431.164 1259.13 432.49 1257.25 433.339C1255.37 434.188 1253.3 434.53 1251.25 434.332C1249.19 434.134 1247.22 433.402 1245.54 432.21C1243.91 431.055 1242.48 429.085 1243.07 427.174C1243.39 426.168 1244.2 425.407 1244.96 424.678C1245.37 424.298 1245.75 423.885 1246.09 423.442L1238.2 420.924C1238.2 420.924 1220.75 414.33 1212.84 412.319L1080.43 392.12C1076.08 391.453 1071.9 389.925 1068.14 387.626C1064.38 385.327 1061.11 382.302 1058.53 378.728C1055.95 375.154 1054.11 371.102 1053.11 366.809C1052.11 362.516 1051.98 358.066 1052.72 353.72C1053.52 349.031 1055.31 344.569 1057.99 340.635C1060.66 336.702 1064.15 333.388 1068.21 330.919C1072.28 328.449 1076.82 326.882 1081.55 326.322C1086.27 325.762 1091.06 326.224 1095.58 327.675Z" fill="#EDB090"/>
<path d="M1228.55 374.358C1227.51 377.044 1229.24 380.087 1231.53 381.831C1233.83 383.574 1236.63 384.485 1239.05 386.061C1246.26 390.766 1248.92 400.621 1256.35 404.978C1257.38 405.584 1258.85 406.006 1259.66 405.122C1260.41 404.307 1260.02 403.003 1259.58 401.98C1255.85 393.224 1252.12 384.477 1248.4 375.739" fill="#EDB090"/>
<path d="M1248.4 375.739C1248.5 375.699 1249.03 376.645 1249.9 378.457C1250.76 380.268 1251.97 382.859 1253.43 386.097L1258.48 397.501L1259.92 400.807C1260.3 401.889 1261.28 403.139 1260.67 405.018C1260.47 405.457 1260.15 405.827 1259.74 406.08C1259.33 406.332 1258.85 406.456 1258.37 406.436C1257.58 406.403 1256.81 406.181 1256.13 405.788C1254.92 405.081 1253.78 404.24 1252.76 403.279C1248.65 399.38 1246.3 394.675 1243.37 391.115C1242.05 389.407 1240.49 387.906 1238.73 386.663C1237.07 385.544 1235.28 384.761 1233.71 383.873C1230.45 382.225 1228.45 379.544 1228.11 377.474C1227.76 375.404 1228.52 374.304 1228.56 374.363C1228.72 374.394 1228.19 375.481 1228.74 377.315C1229.29 379.15 1231.08 381.391 1234.27 382.859C1235.81 383.656 1237.64 384.371 1239.48 385.54C1241.4 386.81 1243.1 388.37 1244.54 390.164C1247.64 393.814 1250.06 398.497 1253.88 402.084C1254.8 402.946 1255.82 403.706 1256.91 404.348C1257.95 404.928 1259.05 404.978 1259.22 404.348C1259.51 403.705 1259 402.5 1258.51 401.382C1258.02 400.263 1257.57 399.117 1257.12 398.053C1255.38 393.814 1253.79 389.928 1252.39 386.509C1251.06 383.217 1250.02 380.535 1249.33 378.67C1248.64 376.804 1248.29 375.785 1248.4 375.739Z" fill="#EC996F"/>
<path d="M1264.07 403.922C1264 404.126 1266.37 404.013 1268.97 406.187C1270.42 407.481 1271.42 409.206 1271.82 411.11C1272.34 413.256 1272.33 415.734 1272.11 418.356C1271.9 420.978 1271.69 423.528 1272 425.865C1272.31 428.202 1273.05 430.249 1274.19 431.684C1274.63 432.269 1275.19 432.744 1275.84 433.072C1276.49 433.4 1277.21 433.571 1277.94 433.573C1278.95 433.523 1279.44 433.26 1279.43 433.224C1279.43 433.12 1278.88 433.224 1277.95 433.165C1277.32 433.093 1276.7 432.883 1276.16 432.549C1275.61 432.216 1275.14 431.768 1274.78 431.236C1273.84 429.909 1273.2 427.948 1272.97 425.751C1272.74 423.555 1272.97 421.069 1273.17 418.433C1273.37 415.797 1273.39 413.188 1272.77 410.892C1272.28 408.815 1271.11 406.961 1269.45 405.63C1268.33 404.756 1267.01 404.178 1265.61 403.95C1264.62 403.773 1264.07 403.864 1264.07 403.922Z" fill="#EC996F"/>
<path d="M1301.97 395.838C1301.97 395.685 1299.97 395.503 1296.74 395.223L1284.11 394.059L1271.5 392.7C1268.28 392.342 1266.28 392.125 1266.25 392.274C1266.23 392.424 1268.19 392.886 1271.4 393.438C1274.61 393.991 1279.06 394.602 1284.01 395.096C1288.95 395.589 1293.44 395.866 1296.69 395.952C1299.93 396.038 1301.97 395.983 1301.97 395.838Z" fill="#EC996F"/>
<path d="M1257.52 409.262C1257.45 409.289 1257.65 409.851 1257.97 410.852C1258.29 411.852 1258.68 413.438 1257.75 414.928C1257.5 415.303 1257.15 415.606 1256.74 415.805C1256.33 416.005 1255.88 416.094 1255.42 416.064C1254.4 416.096 1253.28 415.765 1252.04 415.471C1250.8 415.177 1249.28 414.923 1247.85 415.67C1247.17 416.064 1246.59 416.612 1246.15 417.272C1245.72 417.932 1245.44 418.685 1245.35 419.47C1245.28 420.243 1245.36 421.024 1245.59 421.766C1245.82 422.507 1246.21 423.193 1246.71 423.781C1247.61 424.882 1248.82 425.69 1250.18 426.105C1252.39 426.63 1254.66 426.829 1256.93 426.693C1258.46 426.645 1259.98 426.339 1261.41 425.788C1262.41 425.335 1262.84 424.882 1262.8 424.85C1262.76 424.818 1262.26 425.099 1261.27 425.407C1259.85 425.782 1258.38 425.962 1256.91 425.942C1254.73 425.966 1252.56 425.706 1250.45 425.167C1248.32 424.511 1246.08 422.21 1246.38 419.592C1246.45 418.973 1246.66 418.378 1247 417.854C1247.33 417.329 1247.79 416.889 1248.32 416.567C1249.36 416.005 1250.62 416.141 1251.82 416.404C1253.01 416.667 1254.22 416.997 1255.44 416.929C1256.02 416.934 1256.6 416.787 1257.11 416.503C1257.62 416.218 1258.06 415.807 1258.36 415.308C1259.4 413.388 1258.72 411.644 1258.34 410.711C1257.95 409.778 1257.6 409.235 1257.52 409.262Z" fill="#EC996F"/>
<path d="M1247.55 423.424C1247.55 423.374 1247.01 423.175 1246.04 423.424C1245.36 423.619 1244.73 423.973 1244.2 424.456C1243.68 424.939 1243.27 425.537 1243.02 426.204C1242.35 427.898 1242.67 430.312 1244.21 432.16C1245.75 434.008 1248.22 435.167 1250.88 435.448C1253.4 435.707 1255.93 435.172 1258.13 433.917C1259.9 432.882 1261.37 431.392 1262.38 429.601C1263.06 428.416 1263.51 427.115 1263.72 425.765C1263.84 424.809 1263.78 424.28 1263.72 424.275C1263.52 424.23 1263.5 426.431 1261.74 429.216C1260.73 430.821 1259.33 432.147 1257.67 433.075C1255.63 434.18 1253.3 434.642 1250.99 434.402C1248.56 434.153 1246.3 433.111 1244.95 431.535C1244.33 430.859 1243.89 430.039 1243.68 429.15C1243.46 428.261 1243.48 427.332 1243.72 426.449C1243.91 425.86 1244.23 425.32 1244.66 424.865C1245.08 424.409 1245.59 424.049 1246.16 423.809C1247 423.464 1247.54 423.514 1247.55 423.424Z" fill="#EC996F"/>
<path d="M1231.79 403.465C1231.88 403.465 1232.17 402.559 1232.01 400.943C1231.77 398.747 1230.8 396.696 1229.26 395.114L1228.91 395.974C1230.1 395.973 1231.29 395.899 1232.48 395.752C1239.42 394.924 1244.22 391.64 1244.04 391.45C1243.9 391.156 1239.06 393.918 1232.35 394.711C1231.15 394.86 1229.98 394.942 1228.9 394.969L1227.7 395.001L1228.55 395.829C1229.98 397.254 1230.97 399.065 1231.39 401.042C1231.71 402.523 1231.65 403.456 1231.79 403.465Z" fill="#EC996F"/>
<path d="M1276.61 408.569C1276.52 408.311 1274.52 409.131 1273.3 411.345C1272.07 413.56 1272.39 415.679 1272.66 415.629C1272.92 415.58 1273.11 413.773 1274.21 411.862C1275.31 409.95 1276.75 408.832 1276.61 408.569Z" fill="#EC996F"/>
<path d="M849.472 536.11C849.423 536.477 849.355 536.821 849.3 537.188C849.3 536.808 849.337 536.423 849.337 536.061L849.472 536.11Z" fill="url(#paint12_linear)"/>
<path d="M925.471 320.587C932.591 342.654 945.96 362.179 963.957 376.795C968.978 380.859 974.324 384.504 979.94 387.696C980.773 388.148 981.525 386.88 980.692 386.409C955.155 371.801 935.979 348.197 926.906 320.207C926.617 319.301 925.177 319.686 925.471 320.601V320.587Z" fill="#4083CC"/>
<path d="M931.665 365.26C942.899 378.356 957.547 388.076 973.977 393.339C974.883 393.633 975.281 392.193 974.371 391.903C958.19 386.71 943.769 377.124 932.716 364.214C932.091 363.484 931.04 364.54 931.661 365.264L931.665 365.26Z" fill="#4083CC"/>
<path d="M937.936 202.149C927.844 222.914 926.798 246.323 925.956 268.986C925.919 269.941 927.409 269.941 927.445 268.986C928.274 246.604 929.256 223.412 939.218 202.901C939.634 202.045 938.348 201.288 937.932 202.149H937.936Z" fill="#4083CC"/>
<path d="M1191.17 409.597C1190.91 418.655 1190.42 427.912 1189.57 436.906C1189.57 436.906 995.588 422.559 957.387 373.919C933.137 343.055 935.247 282.232 940.028 241.908C942.785 218.67 946.421 202.244 946.421 202.244L968.408 220.572C968.408 220.572 1057 294.447 1100.65 311.738C1144.29 329.029 1189.57 343.847 1189.57 343.847C1189.57 343.847 1192.12 375.078 1191.17 409.597Z" fill="#326CB4"/>
<path opacity="0.5" d="M1191.17 409.597C1190.91 418.655 1190.42 427.912 1189.57 436.906C1189.57 436.906 995.588 422.559 957.387 373.919C933.137 343.055 935.247 282.232 940.028 241.908C963.505 274.384 1043.79 371.039 1191.17 409.597Z" fill="url(#paint13_linear)"/>
<path d="M679.631 493.259H700.155L697.393 568.039C697.338 569.552 696.975 571.039 696.326 572.407C695.676 573.775 694.754 574.996 693.617 575.995C692.479 576.995 691.149 577.751 689.709 578.218C688.269 578.686 686.748 578.854 685.241 578.713L681.361 578.351L679.631 493.259Z" fill="#368FE0"/>
<path d="M900.229 494.989L989.123 493.259V568.931C989.123 578.736 979.814 586.68 968.327 586.68H927.975C917.534 586.68 908.832 579.886 907.931 570.992L900.229 494.989Z" fill="#368FE0"/>
<path d="M861.706 65.1285C866.393 60.1015 871.215 54.9658 877.422 51.9949C883.63 49.024 891.553 48.6571 896.941 52.9233C899.844 55.2194 901.709 58.5889 902.995 62.0625C908.99 78.2396 903.448 96.4048 895.669 111.798C893.301 116.481 890.127 121.522 884.993 122.613C882.335 123.175 879.537 122.541 877.078 121.386C868.801 117.505 864.192 108.211 863.2 99.1221" fill="#263238"/>
<path d="M867.964 109.914C862.719 120.075 860.631 131.573 861.969 142.93C862.177 144.696 862.558 146.607 863.916 147.753C865.274 148.899 867.371 148.948 869.195 148.704C873.429 148.137 877.462 146.554 880.95 144.089C884.439 141.624 887.279 138.351 889.228 134.55C891.176 130.748 892.176 126.531 892.141 122.259C892.106 117.987 891.038 113.788 889.027 110.018C888.085 108.248 886.872 106.522 885.12 105.539C882.109 103.846 878.369 104.724 875.045 105.644" fill="#263238"/>
<path d="M872.532 129.185C864.287 149.773 841.245 182.715 801.709 172.838C787.523 169.283 782.049 153.948 780.854 135.751C780.731 134.039 780.664 132.269 780.627 130.502C780.369 120.471 781.266 109.865 782.583 100.055C782.638 99.729 782.669 99.3984 782.724 99.0677C784.471 86.4601 786.964 73.9673 790.19 61.6549C887.347 -2.58219 880.764 108.601 872.532 129.185Z" fill="#EDB090"/>
<path d="M870.88 108.257C870.88 108.257 882.408 93.7644 893.111 102.822C903.815 111.88 881.584 146.299 868 138.754C854.417 131.209 870.88 108.257 870.88 108.257Z" fill="#EDB090"/>
<path d="M893.699 84.6571C892.422 79.7955 887.509 76.5599 883.905 72.7605C877.052 65.5457 874.685 55.8389 870.426 47.1575C866.168 38.476 858.247 29.811 847.704 29.623C846.795 29.623 845.859 29.6476 845.045 29.3003C844.164 28.9285 843.582 28.1686 843.032 27.4496C838.749 21.8556 833.953 16.5931 828.694 11.7168C827.749 10.8426 826.778 9.98737 825.781 9.15123C824.193 7.37694 822.412 5.74969 820.464 4.29373C818.286 2.69288 815.763 1.5144 813.054 0.832422C810.345 0.150441 807.508 -0.0203036 804.722 0.330914L804.536 0C804.163 0.147073 803.813 0.330916 803.459 0.498416C800.414 1.02719 797.529 2.13371 794.997 3.74416C792.465 5.35461 790.344 7.43193 788.776 9.83757C772.87 34.2436 770.984 48.0767 774.492 55.892C774.422 57.5804 774.513 59.2712 774.765 60.9456C775.556 65.9706 778.196 70.9343 782.809 73.8595C788.262 77.3034 795.465 77.4342 802.041 76.5395C808.617 75.6448 815.097 73.8635 821.75 73.9493C825.068 73.9902 828.481 74.5417 831.258 76.1718C834.361 77.9939 836.361 80.9476 838.333 83.7665C843.509 91.161 849.772 98.6699 858.92 101.624C864.828 103.523 871.358 103.303 877.42 101.897C881.928 100.852 886.364 99.103 889.622 96.1125C892.881 93.122 894.771 88.7425 893.699 84.6571Z" fill="#263238"/>
<path d="M865.514 66.8269C865.424 66.7997 865.926 65.9211 865.967 64.173C866.008 62.4249 865.428 59.8344 863.309 57.3526C861.272 54.8255 857.536 52.8781 853.126 52.2123C848.703 51.4741 843.777 51.9859 838.637 52.6426C836.07 52.9551 833.544 53.2404 831.072 53.3083C828.689 53.3652 826.306 53.2136 823.949 52.8554C819.963 52.2607 816.084 51.0891 812.435 49.3773C810.01 48.2335 807.71 46.8417 805.571 45.2243C804.819 44.6582 804.272 44.1827 803.905 43.8657C803.708 43.7123 803.529 43.5377 803.371 43.3449C803.42 43.295 804.199 43.9744 805.739 45.0432C807.917 46.5645 810.23 47.8834 812.648 48.9833C816.272 50.6067 820.105 51.7149 824.035 52.2757C826.352 52.6025 828.692 52.7343 831.031 52.6697C833.458 52.5928 835.962 52.3074 838.524 51.9949C843.636 51.3383 848.667 50.8265 853.208 51.619C857.736 52.3301 861.625 54.4133 863.69 57.0808C865.836 59.694 866.375 62.4339 866.225 64.1956C866.204 65.1173 865.96 66.0201 865.514 66.8269Z" fill="#455B64"/>
<path d="M898.871 96.278C898.871 96.278 898.698 96.1874 898.418 95.97C898.137 95.7526 897.716 95.4175 897.204 94.9601C895.765 93.6543 894.46 92.2068 893.31 90.6396C891.599 88.304 890.227 85.7379 889.235 83.0175C888.076 79.947 887.583 76.3782 886.795 72.7597C886.007 69.1411 884.726 65.7898 882.607 63.4121C881.631 62.2808 880.424 61.3726 879.066 60.7492C877.873 60.2391 876.573 60.0337 875.281 60.1514C873.382 60.2712 871.605 61.1275 870.327 62.5381C869.911 63.1043 869.553 63.7112 869.259 64.3496C869.376 63.6343 869.673 62.9608 870.124 62.3932C870.752 61.6248 871.528 60.9906 872.406 60.5285C873.284 60.0663 874.247 59.7856 875.236 59.703C876.609 59.5471 878 59.7402 879.279 60.2646C880.724 60.8959 882.014 61.8375 883.055 63.0227C885.319 65.4863 886.677 68.9736 887.433 72.6329C888.19 76.2922 888.701 79.8156 889.801 82.8273C890.747 85.5075 892.05 88.0484 893.673 90.3814C894.774 91.9549 896.01 93.4294 897.367 94.788C897.894 95.2585 898.395 95.7558 898.871 96.278Z" fill="#455B64"/>
<path d="M868.118 65.4547C868.137 65.1549 868.192 64.8585 868.281 64.5715C868.416 63.9375 868.598 63.1087 868.819 62.0716C869.222 59.9068 869.861 56.7004 869.308 52.7603C868.995 50.597 868.238 48.5217 867.085 46.6645C865.735 44.4484 863.737 42.7001 861.362 41.6556C858.817 40.5279 855.788 40.238 852.759 40.4871C849.73 40.7362 846.669 41.5786 843.591 42.5568C840.512 43.535 837.487 44.5359 834.417 45.0839C831.437 45.5961 828.393 45.6251 825.403 45.17C822.697 44.7635 820.058 43.9911 817.561 42.8738C815.42 41.894 813.389 40.6902 811.502 39.2825C808.846 37.265 806.596 34.7634 804.869 31.9095C804.406 31.1581 804.008 30.3687 803.678 29.55C803.542 29.2776 803.433 28.9924 803.352 28.6985C803.531 28.9493 803.682 29.218 803.805 29.5002C804.19 30.2829 804.625 31.0393 805.109 31.7646C806.897 34.5266 809.167 36.9443 811.81 38.902C813.681 40.2602 815.688 41.4184 817.801 42.3575C820.257 43.4291 822.846 44.1663 825.498 44.5495C828.411 44.9741 831.373 44.9329 834.273 44.4272C837.274 43.8883 840.263 42.8874 843.355 41.9092C846.448 40.931 849.549 40.066 852.687 39.8214C855.825 39.5768 858.962 39.8803 861.638 41.0895C864.128 42.1925 866.214 44.0427 867.606 46.3837C868.773 48.3105 869.527 50.4588 869.82 52.6924C870.156 55.8485 869.912 59.0394 869.1 62.1078C868.842 63.1902 868.598 64.0235 868.43 64.5851C868.356 64.885 868.251 65.1763 868.118 65.4547Z" fill="#455B64"/>
<path d="M864.781 129.071C869.263 119.471 866.618 108.757 858.873 105.14C851.129 101.523 841.218 106.373 836.736 115.973C832.255 125.573 834.9 136.288 842.644 139.905C850.388 143.522 860.3 138.672 864.781 129.071Z" fill="#FC9E8B"/>
<path d="M787.193 122.201C785.699 125.453 783.448 128.3 780.627 130.502C780.369 120.471 781.266 109.865 782.583 100.055C782.638 99.729 782.669 99.3984 782.724 99.0677C789.343 103.275 791.385 113.238 787.193 122.201Z" fill="#FC9E8B"/>
<path d="M791.902 93.5471C791.449 96.1376 792.807 98.5741 794.949 98.9817C797.091 99.3893 799.191 97.623 799.649 95.0461C800.106 92.4692 798.743 90.0146 796.602 89.6115C794.46 89.2085 792.359 90.9566 791.902 93.5471Z" fill="#263238"/>
<path d="M830.225 98.9817C829.772 101.613 831.13 104.086 833.263 104.502C835.396 104.919 837.505 103.144 837.972 100.494C838.438 97.8449 837.066 95.3858 834.938 94.9691C832.81 94.5525 830.691 96.3459 830.225 98.9817Z" fill="#263238"/>
<path d="M809.211 127.278C809.266 127.042 806.707 126.227 802.542 125.1C801.482 124.841 800.495 124.488 800.414 123.741C800.332 122.994 800.867 121.834 801.573 120.652L805.879 112.903C811.901 101.848 816.42 92.7047 815.971 92.4647C815.523 92.2247 810.28 100.988 804.258 112.043C802.8 114.76 801.407 117.366 800.079 119.86C799.504 121.028 798.612 122.319 798.938 124.004C799.042 124.404 799.236 124.775 799.505 125.089C799.774 125.403 800.111 125.651 800.491 125.815C801.07 126.062 801.679 126.233 802.302 126.322C806.517 127.133 809.162 127.513 809.211 127.278Z" fill="#263238"/>
<path d="M826.435 83.7376C826.693 84.9422 830.963 84.9785 835.83 86.2556C840.711 87.4331 844.496 89.4258 845.293 88.4929C845.655 88.04 845.108 86.867 843.65 85.5355C841.687 83.8803 839.374 82.6938 836.884 82.066C834.395 81.4383 831.796 81.3857 829.283 81.9124C827.368 82.397 826.331 83.1715 826.435 83.7376Z" fill="#263238"/>
<path d="M790.743 79.6797C791.349 80.7395 794.365 80.1326 797.883 80.5855C801.392 80.898 804.222 82.1162 805.055 81.2105C805.422 80.7576 805.087 79.7431 803.918 78.6607C802.335 77.3357 800.394 76.5112 798.342 76.2919C796.289 76.0726 794.218 76.4683 792.391 77.4289C791.019 78.2395 790.48 79.1679 790.743 79.6797Z" fill="#263238"/>
<path d="M814.329 152.558C817.382 151.787 818.993 147.741 817.928 143.522C816.863 139.302 813.525 136.506 810.472 137.277C807.42 138.048 805.809 142.094 806.874 146.313C807.939 150.533 811.277 153.329 814.329 152.558Z" fill="#AA6551"/>
<path d="M601.418 169.79C601.078 170.696 600.734 171.602 600.395 172.562C600.531 171.457 600.685 170.352 600.848 169.247C600.838 169.247 601.042 169.451 601.418 169.79Z" fill="url(#paint14_linear)"/>
<path d="M490.958 81.8988H586.309C586.667 81.9083 587.021 81.8111 587.324 81.6196C587.627 81.428 587.867 81.1507 588.012 80.8227C588.158 80.4948 588.203 80.1311 588.141 79.7776C588.08 79.4241 587.915 79.0969 587.667 78.8373L574.989 64.8477C573.508 63.211 572.688 61.0819 572.689 58.8742V21.4342C572.689 18.1768 571.396 15.0527 569.093 12.7493C566.79 10.446 563.667 9.15198 560.41 9.15198H490.958C487.702 9.15198 484.578 10.446 482.276 12.7493C479.973 15.0527 478.679 18.1768 478.679 21.4342V69.6166C478.679 72.874 479.973 75.9981 482.276 78.3014C484.578 80.6048 487.702 81.8988 490.958 81.8988Z" fill="#FFB93E"/>
<path d="M508.019 35.5823C508.016 39.5916 509.451 43.4689 512.062 46.5104C512.717 47.2229 513.322 47.9795 513.874 48.7749C519.529 57.4793 522.59 66.7045 523.948 71.5957C523.998 71.7895 524.112 71.9611 524.27 72.0835C524.429 72.206 524.624 72.2724 524.824 72.2724C525.024 72.2724 525.219 72.206 525.377 72.0835C525.536 71.9611 525.649 71.7895 525.7 71.5957C527.058 66.7 530.124 57.4702 535.783 48.7658C536.325 47.9718 536.919 47.2153 537.563 46.5014C539.328 44.4467 540.57 41.9953 541.184 39.3565C541.797 36.7176 541.763 33.9696 541.085 31.3467C540.406 28.7239 539.104 26.3041 537.288 24.2937C535.472 22.2833 533.198 20.742 530.658 19.8012C528.118 18.8605 525.388 18.5482 522.701 18.891C520.014 19.2339 517.45 20.2216 515.228 21.7701C513.005 23.3186 511.19 25.3817 509.937 27.7837C508.684 30.1856 508.031 32.855 508.033 35.5642L508.019 35.5823ZM518.075 35.5823C518.075 34.2495 518.47 32.9466 519.211 31.8384C519.951 30.7302 521.003 29.8664 522.234 29.3564C523.465 28.8463 524.82 28.7129 526.127 28.9729C527.434 29.2329 528.634 29.8747 529.577 30.8172C530.519 31.7597 531.161 32.9604 531.42 34.2676C531.68 35.5749 531.547 36.9298 531.037 38.1612C530.527 39.3926 529.664 40.4451 528.556 41.1856C527.448 41.926 526.145 42.3213 524.813 42.3213C523.026 42.3213 521.312 41.6113 520.049 40.3475C518.785 39.0837 518.075 37.3696 518.075 35.5823Z" fill="#E7515B"/>
<path d="M1140.61 237.859H1237.38C1238.8 237.859 1240.16 237.293 1241.17 236.287C1242.18 235.28 1242.74 233.915 1242.74 232.492V194.078C1242.74 193.373 1242.6 192.675 1242.33 192.024C1242.06 191.373 1241.67 190.781 1241.17 190.282C1240.67 189.784 1240.08 189.389 1239.43 189.119C1238.78 188.85 1238.08 188.711 1237.38 188.712H1153.98C1153.28 188.711 1152.58 188.849 1151.93 189.119C1151.28 189.388 1150.69 189.784 1150.19 190.282C1149.69 190.78 1149.29 191.372 1149.02 192.024C1148.75 192.675 1148.61 193.373 1148.61 194.078V228.271C1148.61 228.742 1148.51 229.206 1148.31 229.633C1148.11 230.059 1147.82 230.437 1147.46 230.739L1140.22 236.804C1140.12 236.883 1140.06 236.99 1140.03 237.109C1139.99 237.228 1140 237.355 1140.04 237.47C1140.09 237.586 1140.17 237.685 1140.27 237.755C1140.37 237.824 1140.49 237.861 1140.61 237.859Z" fill="#F05758"/>
<path d="M1177.47 216.786C1179.28 216.786 1180.75 215.318 1180.75 213.507C1180.75 211.696 1179.28 210.228 1177.47 210.228C1175.66 210.228 1174.2 211.696 1174.2 213.507C1174.2 215.318 1175.66 216.786 1177.47 216.786Z" fill="white"/>
<path d="M1195.58 216.786C1197.39 216.786 1198.86 215.318 1198.86 213.507C1198.86 211.696 1197.39 210.228 1195.58 210.228C1193.77 210.228 1192.3 211.696 1192.3 213.507C1192.3 215.318 1193.77 216.786 1195.58 216.786Z" fill="white"/>
<path d="M1213.95 216.786C1215.76 216.786 1217.23 215.318 1217.23 213.507C1217.23 211.696 1215.76 210.228 1213.95 210.228C1212.14 210.228 1210.67 211.696 1210.67 213.507C1210.67 215.318 1212.14 216.786 1213.95 216.786Z" fill="white"/>
<path d="M551.037 566.68C562.033 566.68 570.946 554.711 570.946 539.946C570.946 525.182 562.033 513.213 551.037 513.213C540.042 513.213 531.129 525.182 531.129 539.946C531.129 554.711 540.042 566.68 551.037 566.68Z" fill="#EDA820"/>
<path d="M1072.69 110.666C1083.69 110.666 1092.6 98.697 1092.6 83.9323C1092.6 69.1677 1083.69 57.1985 1072.69 57.1985C1061.7 57.1985 1052.78 69.1677 1052.78 83.9323C1052.78 98.697 1061.7 110.666 1072.69 110.666Z" fill="#EDA820"/>
<path d="M972.311 210.002C972.311 210.002 983.929 259.33 965.021 287.504C946.113 315.678 954.304 356.188 974.43 354.671C994.556 353.154 1019.62 306.738 1019.62 306.738L1010.73 245.716L972.311 210.002Z" fill="#E4CB6E"/>
<path d="M1015.81 274.076V325.999C1015.81 325.999 1049.77 328.042 1061.89 318.948C1074 309.854 1068 313.187 1068 313.187L1070.12 305.909L1071.16 256.586L1015.81 274.076Z" fill="#FBBD9D"/>
<path d="M1015.81 295.094C1015.81 295.094 1036.82 300.407 1056.63 276.381C1076.43 252.356 1014.2 276.381 1014.2 276.381L1015.81 295.094Z" fill="#EC996F"/>
<path d="M1094.35 267.609L1097.4 244.512C1097.4 244.512 1114.56 266.504 1124.34 296.14C1134.12 325.777 1151.96 314.31 1148.08 305.932C1148.08 305.932 1156.33 331.606 1140.22 340.147C1100.49 361.216 1091.65 320.189 1091.65 320.189L1094.35 267.609Z" fill="#F5DB7C"/>
<path d="M1031.14 363.829L1018.84 312.087C1018.84 312.087 992.713 323.001 960.788 363.829C928.862 404.656 916.963 473.381 966.158 477.018C1015.35 480.655 1034.53 430.933 1034.53 430.933L1031.14 363.829Z" fill="#E7515B"/>
<path d="M1091.99 371.347L1109.75 329.88C1109.75 329.88 1146.32 346.882 1168.55 415.172C1190.79 483.463 1167.42 520.952 1133.75 517.551C1100.08 514.15 1091.99 371.347 1091.99 371.347Z" fill="#E7515B"/>
<path d="M1020.2 315.497L1008.75 320.429C1008.75 320.429 976.458 367.669 977.916 404.76C979.374 441.852 989.136 506.524 989.136 506.524H1084.05C1084.05 506.524 1121.23 345.02 1112.35 333.001C1103.46 320.981 1086.95 318.182 1086.95 318.182L1020.2 315.497Z" fill="#E7515B"/>
<path d="M1008.94 328.857C1009.95 325.66 1009.04 322.218 1008.48 318.893C1007.93 315.569 1007.85 311.801 1010.1 309.315C1012.35 306.829 1016.04 306.53 1019.37 306.385L1060.54 304.596C1063.35 304.474 1066.6 304.542 1068.36 306.738C1069.47 308.128 1070.27 310.076 1069.81 311.797C1067.69 319.641 1068.35 326.244 1071.43 331.769" fill="#E7515B"/>
<path d="M1064.71 324.926C1064.75 324.976 1064.11 325.51 1062.9 326.443C1061.17 327.705 1059.35 328.85 1057.47 329.871C1051.23 333.251 1044.37 335.344 1037.3 336.026C1033.42 336.43 1029.49 336.354 1025.63 335.8C1022.45 335.356 1019.37 334.363 1016.54 332.865C1014.62 331.851 1012.93 330.476 1011.53 328.816C1011.15 328.371 1010.82 327.892 1010.53 327.385C1010.32 327.041 1010.22 326.851 1010.25 326.837C1010.4 326.665 1012.02 329.867 1016.83 332.312C1019.63 333.693 1022.64 334.599 1025.74 334.993C1029.55 335.491 1033.4 335.541 1037.22 335.143C1044.18 334.458 1050.94 332.481 1057.18 329.314C1062 326.887 1064.61 324.785 1064.71 324.926Z" fill="#CC3644"/>
<path d="M1036.61 336.162C1036.49 336.162 1036.09 334.445 1035.54 331.633C1034.99 328.821 1034.3 324.908 1033.58 320.583C1033.24 318.436 1032.91 316.389 1032.6 314.478C1032.29 312.567 1032.26 310.764 1032.77 309.324C1033.14 308.176 1033.91 307.199 1034.93 306.57C1035.68 306.163 1036.17 306.181 1036.17 306.226C1036.18 306.272 1035.75 306.403 1035.12 306.86C1034.27 307.534 1033.65 308.465 1033.37 309.514C1032.98 310.828 1033.08 312.508 1033.41 314.351L1034.45 320.442C1035.17 324.763 1035.77 328.685 1036.16 331.533C1036.55 334.382 1036.73 336.139 1036.61 336.162Z" fill="#CC3644"/>
<path d="M1058.01 329.645C1057.89 329.645 1057.6 328.227 1057.23 325.904C1056.87 323.581 1056.43 320.365 1055.99 316.801C1055.56 313.237 1055.27 309.963 1054.94 307.716C1054.81 306.85 1054.35 306.068 1053.66 305.529C1053.15 305.176 1052.77 305.144 1052.78 305.076C1052.79 305.008 1053.19 304.926 1053.83 305.239C1054.27 305.486 1054.64 305.821 1054.94 306.222C1055.23 306.623 1055.44 307.081 1055.55 307.567C1056.07 309.949 1056.4 313.124 1056.87 316.701C1057.34 320.279 1057.65 323.495 1057.86 325.832C1058.07 328.168 1058.13 329.627 1058.01 329.645Z" fill="#CC3644"/>
<path d="M1018.84 306.439C1018.91 306.584 1017.4 306.933 1016.07 308.753C1015.31 309.815 1014.79 311.03 1014.56 312.313C1014.29 313.915 1014.24 315.544 1014.41 317.159C1014.73 320.655 1015.03 323.857 1015.17 326.167C1015.32 328.477 1015.36 329.912 1015.23 329.926C1015.11 329.939 1014.86 328.526 1014.55 326.23C1014.23 323.934 1013.85 320.768 1013.53 317.227C1013.35 315.532 1013.43 313.822 1013.76 312.15C1014.05 310.761 1014.67 309.464 1015.57 308.368C1017.17 306.48 1018.87 306.344 1018.84 306.439Z" fill="#CC3644"/>
<path d="M1082.09 181.57C1077.63 176.04 1077.95 167.327 1082.58 161.946C1087.21 156.566 1095.54 154.904 1102.01 157.83C1108.48 160.755 1112.69 167.893 1112.45 174.989C1112.15 183.463 1105.44 191.293 1097.11 192.865C1088.79 194.436 1079.68 189.631 1076.29 181.86" fill="#F5DB7C"/>
<path d="M1086.97 193.924C1087.27 193.924 1087.19 188.748 1085.03 182.82C1082.86 176.891 1079.63 172.856 1079.4 173.051C1079.09 173.255 1081.82 177.467 1083.89 183.232C1085.95 188.997 1086.61 193.965 1086.97 193.924Z" fill="#E7515B"/>
<path d="M1060.81 248.198C1057.75 260.05 1046 274.112 1034.66 280.326C1015.35 290.923 999.799 281.471 990.413 267.681C989.508 266.4 988.697 265.063 987.927 263.709C983.667 256.228 980.42 247.99 977.831 238.348C977.468 237.048 977.138 235.698 976.807 234.331C976.767 234.127 976.708 233.923 976.667 233.756C973.882 222.112 972.402 213.136 971.763 206.211C970.405 191.719 972.619 186.221 973.977 184.396C1016.2 127.473 1059.15 199.961 1062.45 205.718C1062.59 205.953 1062.66 206.084 1062.66 206.084C1062.66 206.084 1063.11 209.101 1063.46 213.906C1064 222.053 1064.1 235.427 1060.81 248.198Z" fill="#FBBD9D"/>
<path d="M949.491 176.375C949.491 176.375 951.664 235.273 1020.86 187.503C1020.86 187.503 1035.68 231.161 1064.05 218.122C1092.43 205.084 1090.56 170.701 1057.19 160.719C1057.19 160.719 1056.24 142.898 1033.99 135.887C1008 127.708 988.819 139.877 976.721 159.066C959.588 186.248 949.491 176.375 949.491 176.375Z" fill="#F5DB7C"/>
<path d="M1058.84 247.166C1062.7 238.192 1059.27 228.094 1051.19 224.612C1043.1 221.13 1033.41 225.582 1029.55 234.556C1025.69 243.529 1029.11 253.627 1037.2 257.109C1045.29 260.591 1054.98 256.139 1058.84 247.166Z" fill="#FC9E8B"/>
<path d="M990.413 267.672C989.508 266.39 988.697 265.054 987.927 263.7C983.667 256.219 980.42 247.981 977.831 238.339C983.178 238.52 988.81 242.415 991.925 248.651C995.439 255.693 994.656 263.478 990.413 267.672Z" fill="#FC9E8B"/>
<path d="M987.705 230.726C988.226 232.85 989.752 234.322 991.119 234.014C992.487 233.706 993.166 231.749 992.65 229.621C992.134 227.492 990.603 226.025 989.24 226.328C987.877 226.632 987.189 228.602 987.705 230.726Z" fill="#263238"/>
<path d="M1022.15 223.466C1022.42 225.563 1023.89 227.13 1025.43 226.962C1026.97 226.795 1028.02 224.97 1027.75 222.886C1027.48 220.803 1026.02 219.223 1024.48 219.386C1022.94 219.549 1021.9 221.369 1022.15 223.466Z" fill="#263238"/>
<path d="M1026.43 220.708C1026.84 220.582 1027.22 220.359 1027.53 220.058C1027.84 219.757 1028.07 219.387 1028.21 218.978C1028.21 218.978 1028.92 221.088 1027.31 222.04C1025.69 222.991 1026.43 220.708 1026.43 220.708Z" fill="#263238"/>
<path d="M1010.67 252.161C1010.62 251.953 1008.29 252.328 1004.58 253.067C1003.64 253.279 1002.72 253.393 1002.36 252.831C1001.91 252.251 1001.97 251.146 1002.05 249.951C1002.15 247.473 1002.26 244.883 1002.37 242.166C1002.73 231.12 1002.67 222.157 1002.22 222.148C1001.78 222.139 1001.12 231.084 1000.76 242.134C1000.69 244.851 1000.63 247.442 1000.57 249.919C1000.57 251.06 1000.39 252.424 1001.31 253.619C1001.55 253.892 1001.85 254.107 1002.18 254.247C1002.52 254.387 1002.88 254.45 1003.24 254.43C1003.79 254.394 1004.33 254.289 1004.85 254.117C1008.49 253.112 1010.72 252.365 1010.67 252.161Z" fill="#263238"/>
<path d="M1014.46 262.727C1015.36 261.944 1016.45 261.404 1017.63 261.158C1018.8 260.913 1020.02 260.969 1021.16 261.323C1022 261.56 1022.77 261.964 1023.45 262.508C1024.12 263.053 1024.68 263.728 1025.09 264.493C1025.85 266.042 1025.7 268.016 1024.53 269.139C1023.22 270.403 1020.98 270.331 1019.24 269.466C1017.5 268.601 1016.15 267.088 1014.88 265.598C1014.49 265.205 1014.19 264.744 1013.97 264.239C1013.87 263.999 1013.84 263.735 1013.89 263.48C1013.94 263.224 1014.07 262.989 1014.25 262.804" fill="#F98470"/>
<path d="M1025.39 257.94C1024.77 257.786 1023.97 261.966 1019.83 264.28C1015.7 266.594 1011.34 265.272 1011.2 265.852C1011.09 266.101 1012.03 266.852 1013.91 267.256C1016.35 267.752 1018.89 267.372 1021.08 266.182C1023.18 265.036 1024.75 263.118 1025.47 260.834C1025.95 259.095 1025.68 257.971 1025.39 257.94Z" fill="#263238"/>
<path d="M988.018 228.312C988.018 228.312 986.587 228.801 985.967 227.619C985.996 228.085 986.174 228.53 986.476 228.886C986.778 229.243 987.187 229.493 987.642 229.598L988.018 228.312Z" fill="#263238"/>
<path d="M992.27 212.488C992.242 213.53 989.055 213.951 985.605 215.473C982.118 216.917 979.569 218.955 978.844 218.231C978.514 217.882 978.763 216.84 979.668 215.577C980.855 214.01 982.434 212.783 984.246 212.022C986.02 211.239 987.974 210.956 989.897 211.202C991.405 211.433 992.27 211.999 992.27 212.488Z" fill="#263238"/>
<path d="M1030.4 209.458C1029.69 210.278 1026.72 209.621 1023.19 209.771C1019.65 209.816 1016.7 210.631 1015.97 209.857C1015.65 209.476 1016.08 208.67 1017.33 207.864C1019.09 206.847 1021.09 206.301 1023.13 206.279C1025.15 206.187 1027.16 206.624 1028.96 207.547C1030.26 208.281 1030.71 209.064 1030.4 209.458Z" fill="#263238"/>
<path d="M1037.27 161.398C1030.89 170.456 1038.17 182.743 1046.08 190.487C1053.99 198.231 1063.59 207.208 1061.83 218.113C1059.79 230.771 1042.82 239.358 1045.77 251.844C1046.84 256.4 1050.57 260.2 1050.75 264.878C1051.03 273.324 1040.23 277.758 1037.33 285.711C1033.34 296.58 1045.52 306.937 1046.05 318.504C1046.35 325.071 1042.82 331.316 1042.82 337.892C1042.82 351.361 1059.03 360.726 1071.98 357.022C1084.93 353.317 1093.48 340.306 1095.92 327.054C1098.37 313.803 1123.09 314.827 1120.59 301.584L1113.75 286.757C1117.82 282.617 1111.94 278.519 1110.82 272.808C1108.01 258.488 1098.18 246.586 1093.26 232.85C1088.95 220.839 1088.53 207.846 1086.43 195.26C1084.33 182.675 1080.01 169.632 1070.13 161.588C1060.25 153.545 1043.5 153.029 1036 163.346" fill="#F5DB7C"/>
<path d="M1083.28 202.987C1083.23 202.787 1080.07 204.404 1074.56 204.64C1069.05 204.875 1061.39 203.353 1054.19 199.047C1046.98 194.74 1041.62 189.192 1037.78 185.247L1033.29 180.483C1032.77 179.869 1032.19 179.301 1031.57 178.784C1032.01 179.46 1032.51 180.097 1033.06 180.687C1034.05 181.873 1035.51 183.576 1037.37 185.628C1041.11 189.704 1046.48 195.328 1053.8 199.73C1061.13 204.132 1069.05 205.627 1074.61 205.174C1076.81 205.048 1078.99 204.628 1081.08 203.924C1081.64 203.734 1082.2 203.513 1082.74 203.263C1083.11 203.113 1083.3 203.014 1083.28 202.987Z" fill="#455B64"/>
<path d="M1057.85 210.024C1057.81 210.097 1059.09 210.93 1061.4 211.745C1067.48 213.876 1074.11 213.796 1080.14 211.519C1082.4 210.613 1083.68 209.784 1083.64 209.707C1083.6 209.63 1082.24 210.251 1079.95 210.985C1073.99 212.914 1067.58 212.991 1061.57 211.207C1059.28 210.536 1057.92 209.902 1057.85 210.024Z" fill="#455B64"/>
<path d="M1056.17 907.091C1056.06 922.697 1048.93 1012.47 1048.81 1028.07C1030.14 1026.12 1023.19 1024.51 1004.52 1022.56C1006.12 1009.74 998.681 922.426 1000.29 909.609C1017.47 908.771 1039 907.929 1056.17 907.091Z" fill="#FBBD9D"/>
<path d="M1053.63 1024.08L1056.52 1078.06L931.638 1081.64C932.254 1075.79 934.065 1067.72 939.883 1061.23C950.641 1049.23 965.311 1053.58 980.547 1042.26C985.731 1038.41 992.292 1031.77 997.35 1019.67L1053.63 1024.08Z" fill="#D83F3F"/>
<path d="M1055.86 1065.72C1056.08 1069.83 1056.3 1073.95 1056.52 1078.06L931.638 1081.64C932.118 1077.09 933.336 1071.18 936.591 1065.72H1055.86Z" fill="#1B2228"/>
<path d="M1001.18 1044.65C997.395 1040.67 992.72 1037.63 987.538 1035.79C988.834 1034.32 990.043 1032.78 991.16 1031.16C996.442 1033.28 1001.21 1036.51 1005.14 1040.63C1007.63 1043.25 1003.69 1047.28 1001.18 1044.65Z" fill="#1B2228"/>
<path d="M992.681 1050.75C989.554 1046.86 985.447 1043.86 980.782 1042.08C982.463 1040.82 984.052 1039.43 985.536 1037.94C989.824 1040.03 993.608 1043.03 996.625 1046.72C998.907 1049.52 994.986 1053.57 992.681 1050.75Z" fill="#1B2228"/>
<path d="M1051.87 545.041L1051.37 583.011L1067.19 887.214L1066.67 933.775L991.871 934.16C988.607 920.854 985.614 901.099 982.906 888.532C978.227 866.845 974.315 846.216 971.17 826.645C936.084 610.488 986.343 521.088 986.343 521.088L1051.87 545.041Z" fill="#1F78FF"/>
<path d="M987.316 908.35H1066.93" stroke="#0044B3" stroke-width="1.44" stroke-miterlimit="10"/>
<path opacity="0.5" d="M1051.37 583.011L1066.67 933.775C1057.39 934.558 1018.01 936.08 991.871 934.16C987.194 912.471 974.353 846.223 971.17 826.645C1042.93 731.412 986.343 545.857 986.343 545.857C995.185 553.026 1044.14 570.032 1051.37 583.011Z" fill="url(#paint15_linear)"/>
<path d="M1139.92 894.152C1143.35 909.378 1151.72 998.415 1155.16 1013.64C1136.53 1015.98 1131.19 1016.78 1112.57 1019.12C1111.21 1006.28 1087.42 922.167 1086.06 909.324C1102.6 904.595 1123.38 898.88 1139.92 894.152Z" fill="#FBBD9D"/>
<path d="M1164.04 1008.65C1169.07 1025.95 1174.1 1043.26 1179.14 1060.56L1058.35 1092.46C1057.62 1086.63 1057.54 1078.35 1061.73 1070.72C1069.48 1056.59 1084.75 1057.49 1097.01 1043C1101.19 1038.07 1106.07 1030.11 1108.24 1017.19L1164.04 1008.65Z" fill="#D83F3F"/>
<path d="M1175.69 1048.69L1179.14 1060.56L1058.35 1092.46C1057.78 1087.93 1057.62 1081.89 1059.55 1075.84L1175.69 1048.69Z" fill="#1B2228"/>
<path d="M1117.65 1040.62C1113.06 1037.6 1107.82 1035.71 1102.35 1035.1C1103.27 1033.37 1104.1 1031.59 1104.81 1029.77C1110.44 1030.63 1115.81 1032.69 1120.57 1035.81C1123.62 1037.79 1120.7 1042.61 1117.65 1040.62Z" fill="#1B2228"/>
<path d="M1110.77 1048.5C1106.83 1045.41 1102.15 1043.44 1097.21 1042.76C1098.55 1041.14 1099.78 1039.43 1100.89 1037.64C1105.54 1038.7 1109.91 1040.76 1113.69 1043.68C1116.54 1045.88 1113.65 1050.71 1110.77 1048.5Z" fill="#1B2228"/>
<path d="M1154.52 919.699L1080.6 926.52C1080.6 926.52 1040.01 724.828 1023.18 599.039C1023.18 599.039 1023.18 599.039 1023.18 599.003C1021.05 583.097 1019.32 568.415 1018.08 555.526L1061.7 526.641L1078.52 515.5C1080.5 516.337 1082.42 517.285 1084.29 518.339C1092.64 522.95 1108.65 533.665 1122.4 553.759C1132.56 568.523 1141.49 588.378 1145.28 614.627C1156.46 691.79 1154.52 919.699 1154.52 919.699Z" fill="#1F78FF"/>
<path d="M1077.76 529.15C1077.76 529.15 1119.6 560.607 1131.09 619.224C1142.59 677.841 1136.95 921.33 1136.95 921.33" stroke="#0044B3" stroke-width="1.44" stroke-miterlimit="10"/>
<path d="M1066.36 551.051C1066.36 551.051 1098.47 617.625 1125.4 603.925" stroke="#0044B3" stroke-width="1.44" stroke-miterlimit="10"/>
<path d="M1075.27 903.472L1154.54 896.158" stroke="#0044B3" stroke-width="1.44" stroke-miterlimit="10"/>
<path d="M1140.33 470.438C1139.29 457.046 1128.65 448.083 1118.09 441.331L1117.6 443.142C1123.59 442.732 1129.59 443.906 1134.98 446.547C1140.38 449.188 1144.99 453.202 1148.34 458.187C1149.03 459.229 1150.72 458.251 1150.03 457.204C1146.5 451.927 1141.64 447.67 1135.95 444.86C1130.26 442.049 1123.93 440.784 1117.6 441.19C1117.39 441.198 1117.19 441.273 1117.02 441.404C1116.86 441.534 1116.74 441.714 1116.69 441.916C1116.63 442.119 1116.64 442.333 1116.72 442.528C1116.8 442.724 1116.93 442.89 1117.11 443.002C1127.01 449.342 1137.4 457.802 1138.39 470.429C1138.49 471.674 1140.44 471.683 1140.34 470.429L1140.33 470.438Z" fill="#CC3644"/>
<path d="M1107.61 346.211C1095.99 366.455 1087.36 388.267 1081.96 410.974C1081.75 411.88 1083.16 412.278 1083.38 411.363C1088.73 388.773 1097.32 367.074 1108.87 346.936C1109.32 346.116 1108.07 345.378 1107.61 346.198V346.211Z" fill="#CC3644"/>
<path d="M983.988 360.998C974.48 386.994 965.746 415.494 974.457 442.97C974.742 443.876 976.155 443.482 975.865 442.581C967.235 415.353 975.969 387.134 985.396 361.388C985.722 360.482 984.309 360.119 983.988 360.998Z" fill="#CC3644"/>
<path d="M968.358 389.711C967.301 402.364 968.912 415.098 973.089 427.088C973.397 427.993 974.81 427.59 974.502 426.698C970.364 414.834 968.769 402.232 969.82 389.711C969.897 388.773 968.435 388.778 968.358 389.711Z" fill="#CC3644"/>
<path opacity="0.5" d="M1122.39 553.737C1079.29 611.543 1023.18 599.025 1023.18 599.025C1023.18 599.025 1023.18 599.025 1023.18 598.989C1021.05 583.084 1019.32 568.401 1018.08 555.512L1061.7 526.627L1084.29 518.326C1092.63 522.927 1108.63 533.642 1122.39 553.737Z" fill="url(#paint16_linear)"/>
<path d="M1016.62 568.673C1016.62 568.673 1022.9 623.513 1026.41 648.766" stroke="#0044B3" stroke-width="1.44" stroke-miterlimit="10"/>
<path d="M1023.1 628.336C1023.1 628.336 1015.6 626.524 1011.16 621.66C1006.72 616.796 1001.78 575.706 1001.78 575.706" stroke="#0044B3" stroke-width="1.44" stroke-miterlimit="10"/>
<path d="M1149.72 529.168C1149.72 529.168 1048.88 567.568 1008.51 568.963C1007.01 569.031 1005.59 569.031 1004.27 568.963C1004.27 568.963 968.417 561.717 944.198 542.596C944.198 542.596 932.666 511.206 920.011 463.454C912.495 435.199 904.585 401.21 898.445 364.617C898.445 364.617 953.91 410.104 982.109 418.596L1113.72 378.566C1113.72 378.566 1108.53 431.286 1110.15 458.59C1110.3 461.472 1110.6 464.344 1111.05 467.195C1111.66 470.768 1112.53 473.25 1113.72 474.188C1122.44 481.058 1149.72 529.168 1149.72 529.168Z" fill="white"/>
<g opacity="0.5">
<path opacity="0.5" d="M1142.59 525.635C1142.59 525.635 1047.47 561.866 1009.38 563.17C1007.97 563.234 1006.64 563.234 1005.39 563.17C1005.39 563.17 971.569 556.318 948.721 538.298C948.721 538.298 937.855 508.693 925.91 463.644C918.815 436.992 911.358 413.179 905.567 378.66C905.567 378.66 957.157 418.696 983.753 426.707L1108.34 387.039C1108.34 387.039 1103.73 433.301 1105.26 459.048C1105.41 461.761 1105.69 464.465 1106.11 467.15C1106.69 470.519 1107.51 472.865 1108.63 473.748C1116.86 480.252 1142.59 525.635 1142.59 525.635Z" fill="url(#paint17_linear)"/>
</g>
<path opacity="0.55" d="M1001.68 421.069L1008.14 471.339L1073.18 452.997C1073.66 452.865 1074.09 452.578 1074.39 452.18C1074.69 451.782 1074.85 451.295 1074.85 450.796V424.361C1074.85 424 1074.76 423.644 1074.6 423.322C1074.43 423 1074.2 422.722 1073.9 422.509C1073.61 422.297 1073.27 422.158 1072.91 422.102C1072.56 422.046 1072.19 422.075 1071.85 422.187L1034.51 434.393L1033.91 418.877L1100.61 397.338V389.498" fill="url(#paint18_linear)"/>
<path opacity="0.55" d="M1039.78 421.331L1094.8 403.669V411.01L1039.78 428.093V421.331Z" fill="url(#paint19_linear)"/>
<path opacity="0.2" d="M992.858 423.822L996.299 448.853L1008.14 471.316" stroke="url(#paint20_linear)" stroke-width="1.1" stroke-miterlimit="10"/>
<g opacity="0.2">
<path opacity="0.2" d="M1093.9 439.225L1078.56 416.245L1079.65 415.516L1092.38 434.592L1091.34 411.209L1092.64 411.151L1093.9 439.225Z" fill="url(#paint21_linear)"/>
</g>
<path opacity="0.2" d="M1074.85 429.243L1093.14 450.017V457.562L1000.5 481.529" stroke="url(#paint22_linear)" stroke-width="1.1" stroke-miterlimit="10"/>
<path opacity="0.65" d="M1149.72 529.168C1149.72 529.168 1122.44 481.058 1113.72 474.188C1112.53 473.25 1111.66 470.768 1111.05 467.195C1110.64 464.795 1110.55 465.171 1110.35 461.887L992.849 488.154C992.587 488.213 992.315 488.216 992.051 488.165C991.787 488.113 991.537 488.008 991.315 487.855C991.094 487.703 990.907 487.506 990.765 487.278C990.623 487.05 990.529 486.795 990.49 486.529L982.408 430.122L986.483 486.357C986.499 486.572 986.465 486.789 986.385 486.989C986.304 487.19 986.178 487.369 986.017 487.514C985.856 487.658 985.664 487.764 985.456 487.822C985.248 487.881 985.029 487.89 984.817 487.851C975.25 486.04 954.988 481.823 946.331 477.204C946.331 477.204 964.985 490.691 985.831 494.866C986.483 494.994 987.085 495.305 987.566 495.763C988.048 496.221 988.388 496.807 988.548 497.452C992.423 513.756 1001.61 551.101 1008.47 568.972C1048.87 567.568 1149.72 529.168 1149.72 529.168Z" fill="url(#paint23_linear)"/>
<path d="M1120.03 447.408C1119.68 445.941 1110.76 417.699 1110.69 418.877C1110.63 420.054 1109.85 443.333 1109.85 443.333C1109.85 443.333 1053.94 430.113 1062.33 435.769C1071.44 441.915 1078.67 443.468 1077.76 443.468C1076.85 443.468 1052.53 435.769 1051.22 438.315C1050.46 439.764 1053.93 442.069 1053.93 442.069C1053.93 442.069 1051.31 441.956 1052.77 445.592C1054.24 449.229 1064.7 453.98 1064.7 453.98C1064.7 453.98 1058.48 453.074 1059.39 455.248C1060.29 457.422 1082.52 468.114 1082.52 468.114C1082.52 468.114 1130.05 489.246 1120.03 447.408Z" fill="#FBBD9D"/>
<path d="M1062.33 435.783C1062.33 435.783 1072.97 442.658 1086.27 444.578C1086.27 444.578 1072.84 444.777 1062.33 435.783Z" fill="#EC996F"/>
<path d="M1054.3 447.467C1054.3 447.467 1062.05 452.522 1074.83 457.571C1074.85 457.562 1064.82 456.453 1054.3 447.467Z" fill="#EC996F"/>
<path d="M1051.79 440.18C1051.79 440.18 1068.38 447.721 1080.76 450.742C1080.77 450.742 1066.28 449.225 1051.79 440.18Z" fill="#EC996F"/>
<path d="M927.617 490.831C929.428 487.692 927.545 474.672 927.848 470.451C928.133 466.466 934.549 450.905 933.553 444.293C933.499 443.926 931.289 442.164 931.144 442.508C929.188 447.209 923.506 462.802 923.506 461.357C923.506 459.704 928.939 418.206 922.999 426.485C921.482 428.609 919.666 435.584 919.666 435.584C919.666 435.584 921.785 420.724 919.666 422.849C917.547 424.973 914.514 433.763 914.514 433.763C914.514 433.763 912.485 418.859 909.71 432.246C907.994 440.525 911.1 456.761 912.155 461.815C912.361 462.817 912.718 463.782 913.214 464.677L927.617 490.831Z" fill="#FBBD9D"/>
<path d="M919.666 435.584L915.877 458.472C915.877 458.472 915.723 447.105 919.666 435.584Z" fill="#EC996F"/>
<path d="M914.514 433.763C914.514 433.763 910.57 446.661 912.997 456.738L914.514 433.763Z" fill="#EC996F"/>
<path d="M1316.99 761.067C1315.57 761.067 1314.21 760.502 1313.2 759.497C1312.2 758.491 1311.63 757.127 1311.63 755.705V627.004C1311.63 615.293 1295.59 605.397 1276.6 605.397C1257.62 605.397 1241.58 615.293 1241.58 627.004V755.705C1241.58 756.409 1241.44 757.106 1241.17 757.757C1240.9 758.408 1240.51 758.999 1240.01 759.497C1239.51 759.994 1238.92 760.389 1238.27 760.659C1237.62 760.928 1236.92 761.067 1236.22 761.067C1235.51 761.067 1234.82 760.928 1234.17 760.659C1233.51 760.389 1232.92 759.994 1232.43 759.497C1231.93 758.999 1231.53 758.408 1231.26 757.757C1230.99 757.106 1230.86 756.409 1230.86 755.705V627.004C1230.86 609.174 1251.38 594.673 1276.59 594.673C1301.79 594.673 1322.32 609.165 1322.32 627.004V755.705C1322.32 757.121 1321.76 758.479 1320.76 759.484C1319.76 760.488 1318.41 761.058 1316.99 761.067Z" fill="#383A45"/>
<path d="M1303.05 593.246H1250.16C1247.69 593.246 1245.69 595.246 1245.69 597.712V612.163C1245.69 614.629 1247.69 616.629 1250.16 616.629H1303.05C1305.52 616.629 1307.52 614.629 1307.52 612.163V597.712C1307.52 595.246 1305.52 593.246 1303.05 593.246Z" fill="#383A45"/>
<path d="M1204.79 1088.05C1217.99 1088.05 1228.7 1077.34 1228.7 1064.13C1228.7 1050.92 1217.99 1040.22 1204.79 1040.22C1191.58 1040.22 1180.87 1050.92 1180.87 1064.13C1180.87 1077.34 1191.58 1088.05 1204.79 1088.05Z" fill="#383A45"/>
<path d="M1348.42 1088.05C1361.63 1088.05 1372.34 1077.34 1372.34 1064.13C1372.34 1050.92 1361.63 1040.22 1348.42 1040.22C1335.22 1040.22 1324.51 1050.92 1324.51 1064.13C1324.51 1077.34 1335.22 1088.05 1348.42 1088.05Z" fill="#383A45"/>
<path d="M1369.93 750.51H1183.29C1174.24 750.51 1166.91 757.846 1166.91 766.896V1028.71C1166.91 1037.76 1174.24 1045.1 1183.29 1045.1H1369.93C1378.97 1045.1 1386.31 1037.76 1386.31 1028.71V766.896C1386.31 757.846 1378.97 750.51 1369.93 750.51Z" fill="#F05757"/>
<path opacity="0.2" d="M1281.07 786.37H1272.14C1270.61 786.37 1269.37 787.607 1269.37 789.133V1006.48C1269.37 1008 1270.61 1009.24 1272.14 1009.24H1281.07C1282.6 1009.24 1283.84 1008 1283.84 1006.48V789.133C1283.84 787.607 1282.6 786.37 1281.07 786.37Z" fill="#FFFAEF"/>
<g opacity="0.2">
<path opacity="0.2" d="M1238.57 786.37H1229.63C1228.1 786.37 1226.87 787.607 1226.87 789.133V1006.48C1226.87 1008 1228.1 1009.24 1229.63 1009.24H1238.57C1240.09 1009.24 1241.33 1008 1241.33 1006.48V789.133C1241.33 787.607 1240.09 786.37 1238.57 786.37Z" fill="#FFFAEF"/>
<path opacity="0.2" d="M1323.58 786.37H1314.64C1313.12 786.37 1311.88 787.607 1311.88 789.133V1006.48C1311.88 1008 1313.12 1009.24 1314.64 1009.24H1323.58C1325.11 1009.24 1326.34 1008 1326.34 1006.48V789.133C1326.34 787.607 1325.11 786.37 1323.58 786.37Z" fill="#FFFAEF"/>
</g>
<path d="M925.372 439.048L928.455 439.175C928.455 439.175 931.135 441.1 928.559 450.139C925.983 459.179 926.499 499.105 926.499 499.105L920.119 478.988L925.372 439.048Z" fill="#F2E2E2"/>
<defs>
<linearGradient id="paint0_linear" x1="967.602" y1="872.205" x2="967.602" y2="-221.457" gradientUnits="userSpaceOnUse">
<stop stop-color="#00DAB4"/>
<stop offset="0.15" stop-color="#00CBA8"/>
<stop offset="0.39" stop-color="#DFE9F5"/>
<stop offset="0.69" stop-color="#B9CFEA"/>
<stop offset="1" stop-color="#8AAFDC"/>
</linearGradient>
<linearGradient id="paint1_linear" x1="1252.31" y1="366.75" x2="1453.41" y2="366.75" gradientUnits="userSpaceOnUse">
<stop stop-color="#00B488"/>
<stop offset="0.92" stop-color="#007BC0"/>
</linearGradient>
<linearGradient id="paint2_linear" x1="180508" y1="502409" x2="242619" y2="502409" gradientUnits="userSpaceOnUse">
<stop stop-color="#00B488"/>
<stop offset="0.92" stop-color="#007BC0"/>
</linearGradient>
<linearGradient id="paint3_linear" x1="84531.7" y1="472098" x2="113239" y2="472098" gradientUnits="userSpaceOnUse">
<stop stop-color="#00B488"/>
<stop offset="0.92" stop-color="#007BC0"/>
</linearGradient>
<linearGradient id="paint4_linear" x1="941.237" y1="447.331" x2="941.237" y2="1092.61" gradientUnits="userSpaceOnUse">
<stop stop-color="#A6D8C5"/>
<stop offset="0.1" stop-color="#A0D6C5"/>
<stop offset="0.24" stop-color="#8ECFC4"/>
<stop offset="0.4" stop-color="#71C4C3"/>
<stop offset="0.58" stop-color="#49B5C2"/>
<stop offset="0.77" stop-color="#16A2C0"/>
<stop offset="0.84" stop-color="#009ABF"/>
</linearGradient>
<linearGradient id="paint5_linear" x1="980.189" y1="1049.2" x2="980.189" y2="1160.8" gradientUnits="userSpaceOnUse">
<stop stop-color="#00A98C"/>
<stop offset="1" stop-color="#03CDAA" stop-opacity="0"/>
</linearGradient>
<linearGradient id="paint6_linear" x1="640.23" y1="47.1672" x2="678.639" y2="47.1672" gradientUnits="userSpaceOnUse">
<stop stop-color="white" stop-opacity="0"/>
<stop offset="0.02" stop-color="#FCFDFE" stop-opacity="0.02"/>
<stop offset="0.29" stop-color="#D4E2F2" stop-opacity="0.37"/>
<stop offset="0.54" stop-color="#B4CCE9" stop-opacity="0.64"/>
<stop offset="0.74" stop-color="#9DBCE2" stop-opacity="0.83"/>
<stop offset="0.9" stop-color="#8FB3DE" stop-opacity="0.96"/>
<stop offset="1" stop-color="#8AAFDC"/>
</linearGradient>
<linearGradient id="paint7_linear" x1="63639" y1="42635.5" x2="66835.8" y2="42635.5" gradientUnits="userSpaceOnUse">
<stop stop-color="white" stop-opacity="0"/>
<stop offset="0.02" stop-color="#FCFDFE" stop-opacity="0.02"/>
<stop offset="0.29" stop-color="#D4E2F2" stop-opacity="0.37"/>
<stop offset="0.54" stop-color="#B4CCE9" stop-opacity="0.64"/>
<stop offset="0.74" stop-color="#9DBCE2" stop-opacity="0.83"/>
<stop offset="0.9" stop-color="#8FB3DE" stop-opacity="0.96"/>
<stop offset="1" stop-color="#8AAFDC"/>
</linearGradient>
<linearGradient id="paint8_linear" x1="785.413" y1="267.708" x2="658.808" y2="186.203" gradientUnits="userSpaceOnUse">
<stop stop-color="#172652" stop-opacity="0"/>
<stop offset="1" stop-color="#00579F"/>
</linearGradient>
<linearGradient id="paint9_linear" x1="726.453" y1="753.717" x2="831.144" y2="753.717" gradientUnits="userSpaceOnUse">
<stop stop-color="#172652" stop-opacity="0"/>
<stop offset="1" stop-color="#172652"/>
</linearGradient>
<linearGradient id="paint10_linear" x1="421444" y1="186341" x2="537578" y2="186341" gradientUnits="userSpaceOnUse">
<stop stop-color="#172652" stop-opacity="0"/>
<stop offset="1" stop-color="#172652"/>
</linearGradient>
<linearGradient id="paint11_linear" x1="248065" y1="879242" x2="436488" y2="765754" gradientUnits="userSpaceOnUse">
<stop stop-color="#172652" stop-opacity="0"/>
<stop offset="1" stop-color="#00579F"/>
</linearGradient>
<linearGradient id="paint12_linear" x1="1211.05" y1="2230.91" x2="1211.12" y2="2230.91" gradientUnits="userSpaceOnUse">
<stop stop-color="#172652" stop-opacity="0"/>
<stop offset="1" stop-color="#172652"/>
</linearGradient>
<linearGradient id="paint13_linear" x1="499707" y1="182684" x2="693688" y2="241970" gradientUnits="userSpaceOnUse">
<stop stop-color="#172652" stop-opacity="0"/>
<stop offset="1" stop-color="#00579F"/>
</linearGradient>
<linearGradient id="paint14_linear" x1="2188.94" y1="2487.42" x2="2199.06" y2="2480" gradientUnits="userSpaceOnUse">
<stop stop-color="#172652" stop-opacity="0"/>
<stop offset="1" stop-color="#00579F"/>
</linearGradient>
<linearGradient id="paint15_linear" x1="201.566" y1="740.47" x2="202.159" y2="740.47" gradientUnits="userSpaceOnUse">
<stop stop-color="#172652" stop-opacity="0.7"/>
<stop offset="1" stop-color="#0D72B9"/>
</linearGradient>
<linearGradient id="paint16_linear" x1="269768" y1="135789" x2="271412" y2="120123" gradientUnits="userSpaceOnUse">
<stop stop-color="#172652" stop-opacity="0.7"/>
<stop offset="1" stop-color="#0D72B9"/>
</linearGradient>
<linearGradient id="paint17_linear" x1="905.572" y1="470.949" x2="1142.6" y2="470.949" gradientUnits="userSpaceOnUse">
<stop stop-color="#A6D8C5"/>
<stop offset="0.12" stop-color="#A0D6C5"/>
<stop offset="0.29" stop-color="#8ECFC4"/>
<stop offset="0.48" stop-color="#71C4C3"/>
<stop offset="0.69" stop-color="#49B5C2"/>
<stop offset="0.91" stop-color="#16A2C0"/>
<stop offset="1" stop-color="#009ABF"/>
</linearGradient>
<linearGradient id="paint18_linear" x1="1001.68" y1="430.416" x2="1100.61" y2="430.416" gradientUnits="userSpaceOnUse">
<stop stop-color="#00A89C" stop-opacity="0"/>
<stop offset="1" stop-color="#00A89C"/>
</linearGradient>
<linearGradient id="paint19_linear" x1="139898" y1="30598.2" x2="146584" y2="30598.2" gradientUnits="userSpaceOnUse">
<stop stop-color="#00A89C" stop-opacity="0"/>
<stop offset="1" stop-color="#00A89C"/>
</linearGradient>
<linearGradient id="paint20_linear" x1="37969.7" y1="62466.1" x2="38501.3" y2="62466.1" gradientUnits="userSpaceOnUse">
<stop stop-color="#A6D8C5"/>
<stop offset="0.1" stop-color="#A0D6C5"/>
<stop offset="0.24" stop-color="#8ECFC4"/>
<stop offset="0.4" stop-color="#71C4C3"/>
<stop offset="0.58" stop-color="#49B5C2"/>
<stop offset="0.77" stop-color="#16A2C0"/>
<stop offset="0.84" stop-color="#009ABF"/>
</linearGradient>
<linearGradient id="paint21_linear" x1="41121.8" y1="35694.9" x2="41641.9" y2="35694.9" gradientUnits="userSpaceOnUse">
<stop stop-color="#A6D8C5"/>
<stop offset="0.1" stop-color="#A0D6C5"/>
<stop offset="0.24" stop-color="#8ECFC4"/>
<stop offset="0.4" stop-color="#71C4C3"/>
<stop offset="0.58" stop-color="#49B5C2"/>
<stop offset="0.77" stop-color="#16A2C0"/>
<stop offset="0.84" stop-color="#009ABF"/>
</linearGradient>
<linearGradient id="paint22_linear" x1="226775" y1="69632.7" x2="245794" y2="69632.7" gradientUnits="userSpaceOnUse">
<stop stop-color="#A6D8C5"/>
<stop offset="0.1" stop-color="#A0D6C5"/>
<stop offset="0.24" stop-color="#8ECFC4"/>
<stop offset="0.4" stop-color="#71C4C3"/>
<stop offset="0.58" stop-color="#49B5C2"/>
<stop offset="0.77" stop-color="#16A2C0"/>
<stop offset="0.84" stop-color="#009ABF"/>
</linearGradient>
<linearGradient id="paint23_linear" x1="536495" y1="211860" x2="507714" y2="169118" gradientUnits="userSpaceOnUse">
<stop stop-color="#00A89C" stop-opacity="0"/>
<stop offset="1" stop-color="#00A89C"/>
</linearGradient>
</defs>
</svg>
